<svg width="61" height="62" viewBox="0 0 61 62" fill="none" xmlns="http://www.w3.org/2000/svg">
<mask id="mask0_2446_564" style="mask-type:luminance" maskUnits="userSpaceOnUse" x="0" y="0" width="61" height="62">
<path d="M60.5 0.5H0.5V62H60.5V0.5Z" fill="white"/>
</mask>
<g mask="url(#mask0_2446_564)">
<path d="M17.1531 16.163V15.182C17.0817 11.6192 18.4039 8.16934 20.8383 5.56708C23.2728 2.96481 26.627 1.41583 30.1866 1.25H30.5647C34.1251 1.30943 37.5212 2.75892 40.0272 5.28876C42.5332 7.8186 43.9505 11.2282 43.9763 14.789V16.55" stroke="#383838" stroke-width="1.5" stroke-miterlimit="10"/>
<path d="M43.7868 25.7778C43.8583 29.3406 42.5361 32.7905 40.1016 35.3927C37.6672 37.995 34.313 39.544 30.7534 39.7098H30.3754C26.815 39.6504 23.4189 38.2009 20.9129 35.6711C18.4069 33.1412 16.9896 29.7317 16.9639 26.1708V25.7778" stroke="#383838" stroke-width="1.5" stroke-miterlimit="10"/>
<path d="M50.3331 61.2502H10.6671C9.9042 61.2496 9.14927 61.0951 8.44742 60.7961C7.74557 60.4971 7.11119 60.0596 6.58221 59.5099C6.05322 58.9602 5.64048 58.3095 5.36865 57.5967C5.09681 56.8839 4.97146 56.1236 5.00009 55.3612V22.3987C4.97167 21.6365 5.09717 20.8764 5.3691 20.1637C5.64102 19.4511 6.0538 18.8005 6.58276 18.251C7.11173 17.7015 7.74603 17.2642 8.44778 16.9652C9.14953 16.6663 9.90433 16.5119 10.6671 16.5112H50.3331C51.0959 16.5119 51.8507 16.6663 52.5524 16.9652C53.2542 17.2642 53.8885 17.7015 54.4174 18.251C54.9464 18.8005 55.3592 19.4511 55.6311 20.1637C55.903 20.8764 56.0285 21.6365 56.0001 22.3987V55.3612C56.0254 56.8925 55.4436 58.3715 54.3817 59.475C53.3198 60.5785 51.8642 61.2167 50.3331 61.2502Z" stroke="#383838" stroke-width="1.5" stroke-miterlimit="10"/>
</g>
</svg>
