<svg width="29" height="27" viewBox="0 0 29 27" fill="none" xmlns="http://www.w3.org/2000/svg">
<path d="M27.2875 18.6898L27.2665 18.8661C22.0998 16.2911 21.5594 15.948 20.8922 16.9489C20.4291 17.6421 19.0807 19.2138 18.6741 19.679C18.2628 20.1372 17.8541 20.1725 17.1562 19.8552C16.4513 19.5028 14.1887 18.7627 11.5104 16.3663C9.42397 14.4983 8.02355 12.2076 7.61002 11.5026C6.92161 10.3138 8.36188 10.1446 9.67284 7.66333C9.90789 7.17003 9.78814 6.78242 9.61425 6.4323C9.43803 6.0798 8.03529 2.62594 7.4479 1.24911C6.88402 -0.123041 6.30368 0.0508223 5.86899 0.0508223C4.51566 -0.066656 3.52648 -0.0478622 2.6548 0.859085C-1.1374 5.02721 -0.181128 9.32696 3.06362 13.8991C9.44037 22.2449 12.8377 23.7815 19.05 25.9148C20.7277 26.4481 22.2573 26.3729 23.4672 26.199C24.8159 25.9853 27.6189 24.5052 28.2038 22.8486C28.8031 21.1922 28.8031 19.8177 28.6268 19.5004C28.453 19.1834 27.9925 19.0071 27.2875 18.6898Z" fill="white"/>
</svg>
