<svg width="58" height="42" viewBox="0 0 58 42" fill="none" xmlns="http://www.w3.org/2000/svg">
<path d="M54.2076 41.0102H3.79217C3.4913 41.0329 3.18903 40.9915 2.90532 40.8888C2.6216 40.7861 2.3629 40.6244 2.14629 40.4144C1.92968 40.2043 1.76009 39.9507 1.64871 39.6703C1.53733 39.3899 1.48671 39.089 1.50017 38.7876V3.22473C1.48671 2.9233 1.53733 2.62244 1.64871 2.34202C1.76009 2.0616 1.92968 1.80799 2.14629 1.59794C2.3629 1.38789 2.6216 1.22618 2.90532 1.12348C3.18903 1.02078 3.4913 0.979427 3.79217 1.00215H54.2076C54.5085 0.979427 54.8107 1.02078 55.0945 1.12348C55.3782 1.22618 55.6369 1.38789 55.8535 1.59794C56.0701 1.80799 56.2397 2.0616 56.3511 2.34202C56.4624 2.62244 56.5131 2.9233 56.4996 3.22473V38.7876C56.5131 39.089 56.4624 39.3899 56.3511 39.6703C56.2397 39.9507 56.0701 40.2043 55.8535 40.4144C55.6369 40.6244 55.3782 40.7861 55.0945 40.8888C54.8107 40.9915 54.5085 41.0329 54.2076 41.0102Z" stroke="#E87722" stroke-width="1.71429" stroke-miterlimit="10" stroke-linecap="round" stroke-linejoin="round"/>
<path d="M56.4986 11.0044H1.5V16.0058H56.4986V11.0044Z" fill="#E87722"/>
<path d="M5.25098 24.7568H20.2544" stroke="#E87722" stroke-width="1.71429"/>
</svg>
