<svg width="40" height="40" viewBox="0 0 40 40" fill="none" xmlns="http://www.w3.org/2000/svg">
<path d="M32.2125 2.49463H11.8174C11.65 2.49463 11.513 2.63161 11.513 2.79903V4.92986C11.513 5.09728 11.65 5.23427 11.8174 5.23427H30.6905V31.413C30.6905 31.5804 30.8275 31.7174 30.9949 31.7174H33.1257C33.2932 31.7174 33.4301 31.5804 33.4301 31.413V3.71225C33.4301 3.03875 32.886 2.49463 32.2125 2.49463ZM27.3421 7.3651H7.86019C7.1867 7.3651 6.64258 7.90922 6.64258 8.58271V28.7761C6.64258 29.0996 6.77195 29.4078 7.00025 29.6361L13.5944 36.2302C13.6781 36.3139 13.7732 36.3824 13.876 36.4395V36.5118H14.0358C14.169 36.5613 14.3098 36.5879 14.4543 36.5879H27.3421C28.0156 36.5879 28.5597 36.0438 28.5597 35.3703V8.58271C28.5597 7.90922 28.0156 7.3651 27.3421 7.3651ZM13.8722 32.6383L10.596 29.3583H13.8722V32.6383ZM25.82 33.8483H16.3074V28.4451C16.3074 27.6042 15.6263 26.9231 14.7854 26.9231H9.38222V10.1047H25.82V33.8483Z" fill="black"/>
</svg>
