<svg width="50" height="53" viewBox="0 0 50 53" fill="none" xmlns="http://www.w3.org/2000/svg">
<path d="M36.9922 6.33828L25.495 1.02741C25.2583 0.913593 24.999 0.854492 24.7363 0.854492C24.4737 0.854492 24.2144 0.913593 23.9776 1.02741L12.4805 6.33828C12.1792 6.47516 11.9246 6.69738 11.7482 6.97745C11.5719 7.25752 11.4815 7.58314 11.4884 7.91403V22.8545L1.10007 27.6401C0.787702 27.7844 0.522953 28.0147 0.336887 28.3041C0.150821 28.5936 0.0511501 28.9301 0.0495671 29.2743V45.3819C0.0393641 45.7211 0.135028 46.055 0.323277 46.3374C0.511526 46.6198 0.783022 46.8365 1.10007 46.9576L12.5972 52.2685L13.2976 52.4436C13.5609 52.4472 13.8212 52.3871 14.0562 52.2685L24.7363 47.3661L35.4164 52.2685C35.6515 52.3871 35.9118 52.4472 36.1751 52.4436L36.8755 52.2685L48.3726 46.9576C48.6896 46.8365 48.9611 46.6198 49.1494 46.3374C49.3376 46.055 49.4333 45.7211 49.4231 45.3819V29.2743C49.4215 28.9301 49.3218 28.5936 49.1358 28.3041C48.9497 28.0147 48.685 27.7844 48.3726 27.6401L37.9843 22.8545V7.91403C37.9911 7.58314 37.9008 7.25752 37.7244 6.97745C37.5481 6.69738 37.2935 6.47516 36.9922 6.33828ZM13.1808 25.9477L20.476 29.3326L13.2976 32.6007L6.0024 29.2743L13.1808 25.9477ZM22.9855 14.3337V26.5896L14.99 22.9128V10.657L22.9855 14.3337ZM26.4872 14.3337L34.4826 10.657V22.9128L26.4872 26.5896V14.3337ZM15.0484 35.694L22.9855 32.0172V44.3313L15.0484 47.9497V35.694ZM26.4872 32.0172L34.4243 35.694V47.9497L26.4872 44.3313V32.0172ZM36.1751 32.6007L28.9967 29.3326L36.2918 25.9477L43.4703 29.2743L36.1751 32.6007ZM24.7363 4.52908L32.0315 7.91403L24.7363 11.299L17.4412 7.91403L24.7363 4.52908ZM3.55123 31.9589L11.5467 35.694V47.9497L3.55123 44.273V31.9589ZM37.9259 47.9497V35.694L45.9214 31.9589V44.273L37.9259 47.9497Z" fill="#333333"/>
</svg>
