<svg width="58" height="42" viewBox="0 0 58 42" fill="none" xmlns="http://www.w3.org/2000/svg">
<path d="M17.6058 19.9468H5.08984V22.8028H17.6058V19.9468Z" fill="#E87722"/>
<path d="M44.7167 0.159737H4.05123C3.57303 0.156778 3.099 0.248784 2.65663 0.430419C2.21425 0.612054 1.81234 0.879704 1.4742 1.21785C1.13605 1.55599 0.868402 1.95791 0.686767 2.40028C0.505131 2.84265 0.413126 3.31668 0.416085 3.79488V32.8263C0.413126 33.3045 0.505131 33.7785 0.686767 34.2209C0.868402 34.6633 1.13605 35.0652 1.4742 35.4033C1.81234 35.7415 2.21425 36.0091 2.65663 36.1908C3.099 36.3724 3.57303 36.4644 4.05123 36.4615H36.7701C36.4399 35.7914 36.1622 35.0967 35.9395 34.3837H4.05123C3.84553 34.3876 3.64118 34.3499 3.45039 34.2729C3.25959 34.196 3.08627 34.0813 2.9408 33.9359C2.79533 33.7904 2.68069 33.6171 2.60374 33.4263C2.52679 33.2355 2.4891 33.0311 2.49294 32.8255V15.4803H46.2732V19.3237C46.9641 19.2545 47.6601 19.2545 48.3509 19.3237V3.79488C48.3539 3.31675 48.2619 2.84279 48.0803 2.40048C47.8988 1.95816 47.6312 1.55629 47.2931 1.21816C46.9551 0.880022 46.5533 0.612354 46.111 0.430668C45.6687 0.248982 45.1948 0.156892 44.7167 0.159737ZM2.4938 9.1966V3.79659C2.48985 3.5909 2.52742 3.38653 2.60426 3.19569C2.68111 3.00485 2.79566 2.83147 2.94105 2.68592C3.08644 2.54037 3.25969 2.42563 3.45045 2.34858C3.6412 2.27152 3.84553 2.23373 4.05123 2.23745H44.7167C44.9221 2.23385 45.1262 2.27168 45.3168 2.34868C45.5073 2.42568 45.6804 2.54028 45.8256 2.68564C45.9709 2.831 46.0854 3.00413 46.1623 3.19471C46.2392 3.38529 46.2769 3.58941 46.2732 3.79488V9.19488L2.4938 9.1966Z" fill="#E87722"/>
<path d="M47.3139 21.0371C45.3211 21.0369 43.3729 21.6277 41.7159 22.7348C40.0588 23.8418 38.7673 25.4153 38.0045 27.2564C37.2418 29.0975 37.0421 31.1234 37.4308 33.078C37.8195 35.0325 38.779 36.8279 40.1881 38.2371C41.5972 39.6463 43.3925 40.606 45.347 40.9949C47.3016 41.3837 49.3275 41.1842 51.1686 40.4217C53.0098 39.6591 54.5834 38.3676 55.6906 36.7107C56.7978 35.0537 57.3887 33.1056 57.3887 31.1128C57.3862 28.4415 56.324 25.8803 54.4352 23.9913C52.5463 22.1023 49.9852 21.0398 47.3139 21.0371ZM55.4679 33.5514H39.1599C38.9339 32.7746 38.8117 31.9714 38.7965 31.1625H55.8305C55.8409 31.9733 55.719 32.7804 55.4679 33.5514ZM45.6004 23.2657H46.587L45.7042 23.8374L46.0162 24.7725L45.237 24.2017L44.4579 24.7725L44.7699 23.8374L44.043 23.318C44.0953 23.318 44.0953 23.318 44.1467 23.2657H44.9773L45.081 22.9537C45.1847 22.9014 45.3382 22.9014 45.4445 22.85L45.6004 23.2657ZM46.0162 30.2248L45.237 29.654L44.4579 30.2248L44.7699 29.2897L43.9393 28.7188H44.9259L45.2379 27.7837L45.5499 28.7188H46.5365L45.7573 29.2897L46.0162 30.2248ZM42.6407 30.2248L41.8616 29.654L41.0825 30.2248L41.3945 29.2897L40.5639 28.7188H41.5505L41.8624 27.7837L42.1744 28.7188H43.161L42.3819 29.2897L42.6407 30.2248ZM42.6407 27.524L41.8616 26.9531L41.0825 27.524L41.3945 26.5888L40.6153 26.018H41.601L41.913 25.0828L42.225 26.018H43.2116L42.3287 26.5888L42.6407 27.524ZM46.0162 27.524L45.237 26.9531L44.4579 27.524L44.7699 26.5888L43.9907 26.018H44.9773L45.2893 25.0828L45.6013 26.018H46.5879L45.705 26.5888L46.0162 27.524ZM47.3662 26.2777H54.2739C54.8049 27.0194 55.2088 27.8444 55.4687 28.7188H47.3653L47.3662 26.2777ZM47.3662 23.8365V22.6468C48.8664 22.6605 50.3361 23.0728 51.6244 23.8417L47.3662 23.8365ZM42.4325 24.2L42.6399 24.7708L42.1727 24.4074C42.249 24.329 42.3362 24.262 42.4316 24.2085L42.4325 24.2ZM39.8353 28.718L39.0562 29.2888L39.3682 30.224L38.901 29.8605C38.9563 29.4735 39.0423 29.0914 39.1582 28.718H39.8353ZM51.7239 38.4371H42.8953C41.8637 37.8202 40.9777 36.9874 40.2982 35.996H54.3244C53.6169 36.9643 52.735 37.7922 51.7239 38.4371Z" fill="#E87722"/>
</svg>
