<svg width="80" height="91" viewBox="0 0 80 91" fill="none" xmlns="http://www.w3.org/2000/svg">
<mask id="path-1-outside-1_2658_141" maskUnits="userSpaceOnUse" x="0" y="0" width="80" height="91" fill="black">
<rect fill="white" width="80" height="91"/>
<path fill-rule="evenodd" clip-rule="evenodd" d="M14.0019 11.1564C15.7779 5.82551 20.2087 2.02692 25.7015 1.13691C26.2508 1.04516 27.0381 1.01763 28.3197 1.03598C30.2514 1.07269 31.2492 1.20114 32.6682 1.60486C33.6478 1.88929 35.4421 2.77012 36.2843 3.37569C37.1815 4.03632 38.4265 5.28416 39.2413 6.36684C39.6166 6.87149 39.9553 7.28438 39.9919 7.28438C40.0286 7.28438 40.3673 6.87149 40.7426 6.36684C41.5482 5.30251 42.7933 4.03632 43.6721 3.39404C44.8439 2.54074 46.6108 1.74249 48.048 1.42135C49.9156 0.990105 52.4789 0.879997 54.2366 1.13691C60.416 2.06361 65.3503 6.92654 66.5313 13.2575C67.3003 17.3681 66.8517 20.9465 65.1123 24.4698C63.437 27.8647 60.5442 31.0668 55.445 35.1682C54.4929 35.9206 53.7239 36.572 53.7239 36.5996C53.7239 36.6271 53.9162 36.7188 54.1634 36.8014C56.3971 37.5446 70.0009 42.5085 70.1291 42.6278C70.2298 42.7195 70.4861 43.0406 70.6967 43.3434C70.9072 43.6462 72.6466 46.0593 74.5599 48.711C78.8487 54.6478 79.0175 54.8637 78.9989 55.062C78.9965 55.088 78.9908 55.1138 78.9908 55.1521C78.9908 55.6751 78.7802 55.7852 74.505 57.4092L70.4312 58.9599L70.3854 68.649C70.3488 77.2646 70.3213 78.3565 70.1932 78.485C70.1199 78.5584 68.9664 79.0447 67.6299 79.5493L67.4697 79.6102C66.1712 80.1038 64.6082 80.698 63.9314 80.9623C63.5568 81.1037 62.4327 81.5326 60.9518 82.0977C59.6457 82.5961 58.062 83.2004 56.4703 83.8067C54.4988 84.5576 52.444 85.3426 50.8592 85.948C49.7139 86.3856 48.814 86.7294 48.3685 86.8987C47.3157 87.3025 45.8692 87.853 45.1643 88.1191C44.4594 88.3851 43.0588 88.9173 42.0609 89.3027C41.0539 89.688 40.1293 90 39.9919 90C39.8638 90 35.4787 88.3668 30.2422 86.3666C25.0058 84.3755 18.2954 81.8156 15.3201 80.6779C12.354 79.5493 9.86395 78.5584 9.78156 78.485C9.66255 78.3565 9.63508 77.1912 9.59846 68.649L9.55269 58.9507L5.52464 57.4276C2.705 56.3632 1.42335 55.8311 1.24941 55.6567C0.800835 55.2347 0.874072 55.042 2.16488 53.2344C6.60489 47.0503 9.64424 42.8571 9.80902 42.6828C9.92803 42.5544 10.6696 42.2424 11.6583 41.8846C12.5646 41.5634 15.5124 40.5083 18.2038 39.5357C20.8953 38.5723 23.8157 37.5263 24.6853 37.2143C25.5459 36.9024 26.2508 36.6179 26.2416 36.5812C26.2233 36.5445 25.5276 35.9665 24.6945 35.2967C18.1306 30.0392 14.9082 25.9562 13.6631 21.3226C12.8026 18.1204 12.9216 14.3861 14.0019 11.1564ZM34.0048 3.85281C33.0527 3.35735 32.2654 3.09126 31.0204 2.82517C29.8669 2.57744 26.9282 2.50404 25.848 2.69672C23.9255 3.0362 21.6368 4.02714 20.1172 5.16488C18.5151 6.37602 16.9405 8.31202 16.1074 10.092C14.4779 13.5695 14.2033 17.9553 15.3751 21.5796C15.9518 23.3687 17.2609 25.6901 18.6341 27.3692C20.8678 30.0851 22.8636 31.8834 28.8416 36.5445C30.645 37.9483 32.7689 39.6366 33.5562 40.2972C35.2407 41.6919 38.0603 44.4812 38.8842 45.5639C39.8088 46.7658 40.175 46.7658 41.0905 45.5822C41.4018 45.1785 42.1799 44.3068 42.8116 43.6462C44.789 41.6001 46.4734 40.1688 51.481 36.2784C54.7401 33.7369 56.3513 32.4156 57.8344 31.0668C63.199 26.1672 65.5609 21.497 65.3137 16.267C65.1306 12.3308 63.8581 9.11945 61.4779 6.63293C60.3519 5.44932 59.3266 4.69694 57.7978 3.93539C55.6006 2.83434 54.0718 2.51321 51.481 2.58662C48.048 2.69672 45.6861 3.57755 43.5897 5.53189C42.7841 6.28427 42.1891 7.02747 41.2278 8.468C40.4405 9.65162 40.2208 9.82595 39.7448 9.66079C39.5708 9.60574 39.3328 9.33965 39.0124 8.84418C37.2822 6.17416 35.9456 4.84375 34.0048 3.85281ZM37.9962 46.9585C35.6343 44.1325 33.6569 42.2975 29.2077 38.8292C28.4754 38.2603 27.8345 37.7924 27.7796 37.8015C27.7247 37.8015 26.8367 38.1043 25.8022 38.4805C25.2664 38.6754 24.1044 39.0917 22.6799 39.6021C21.3541 40.0772 19.8009 40.6337 18.3137 41.1689C15.2194 42.2791 12.7294 43.2058 12.7751 43.2333C12.8117 43.2609 16.8215 44.7931 21.6826 46.6466C22.8199 47.0802 24.0233 47.5389 25.2325 47.9998C29.1918 49.509 33.213 51.0418 35.1766 51.7939C37.7399 52.7757 39.9095 53.5739 40.0011 53.5739C40.0835 53.5739 43.2968 52.372 47.1417 50.9039C52.991 48.6738 57.1596 47.0833 60.0873 45.9662C63.9413 44.4957 65.6451 43.8456 66.2017 43.637C66.7419 43.4352 67.1813 43.2425 67.1813 43.2058C67.1813 43.1508 52.7993 37.9575 52.2958 37.8291C52.1585 37.7924 51.7099 38.0951 50.5106 39.0402C45.9242 42.6553 44.1573 44.2885 42.125 46.8117C41.3926 47.7109 40.8616 48.0045 39.9919 48.0045C39.1589 48.0045 38.6279 47.7292 37.9962 46.9585ZM38.637 54.8401C38.5821 54.7851 30.05 51.5187 14.4962 45.5914C12.5371 44.839 10.8618 44.2059 10.7886 44.1784C10.7062 44.1417 10.6055 44.1967 10.5231 44.3252C10.4498 44.4353 9.80902 45.3345 9.09496 46.3254C8.38089 47.3072 6.81545 49.4726 5.61619 51.1425C4.65543 52.4832 3.76029 53.7162 3.38836 54.2286C3.29957 54.3509 3.2406 54.4321 3.21767 54.4639L2.9888 54.7667L3.19936 54.8493C3.23903 54.8646 3.68659 55.0349 4.43254 55.3186C5.92441 55.8861 8.60977 56.9076 11.6125 58.0515C13.6117 58.8131 15.5892 59.5674 17.2449 60.199C19.3194 60.9903 20.8887 61.5889 21.3622 61.7675C25.0424 63.1805 30.8647 65.3918 30.9929 65.4285C31.1302 65.4652 38.7286 54.9319 38.637 54.8401ZM70.9544 46.4024C70.6118 45.9254 70.3159 45.5132 70.1291 45.2519C69.6897 44.6372 69.3143 44.1325 69.2868 44.1417C69.2594 44.1417 67.4925 44.8115 65.3503 45.6373C56.8914 48.8853 42.1158 54.519 41.7039 54.6566C41.4567 54.7392 41.2827 54.8493 41.3102 54.9044C41.3285 54.9686 41.7954 55.6292 42.3355 56.3816C42.583 56.7263 42.9208 57.1943 43.275 57.685C43.6938 58.2652 44.1355 58.8771 44.4777 59.3544C48.2128 64.5293 48.8994 65.456 48.991 65.4285C49.0551 65.4101 51.8198 64.3641 55.1429 63.0979C58.466 61.8317 61.8624 60.538 62.6955 60.226C63.0872 60.0762 64.635 59.485 66.5711 58.7455C70.563 57.2207 76.2052 55.0656 76.7662 54.8493C76.9676 54.7759 76.9218 54.7025 75.9606 53.3721C75.4113 52.6013 74.7339 51.6563 74.4592 51.2801C74.1937 50.9039 73.2874 49.6377 72.4452 48.4816C71.9662 47.8117 71.4177 47.0477 70.9544 46.4024ZM48.341 67.1626C48.1487 67.08 47.1143 65.7221 44.4777 62.0519C42.5003 59.3085 40.8525 57.0606 40.825 57.0606C40.7609 57.0606 40.7792 87.9723 40.8342 88.0365C40.8708 88.064 48.6065 85.1371 57.34 81.7881C60.3611 80.632 68.3439 77.5858 68.5819 77.5032L68.8291 77.4114V68.5205C68.8291 63.3732 68.7925 59.6297 68.7467 59.6297C68.701 59.6297 68.1151 59.8407 67.4468 60.0976C67.1635 60.205 66.8018 60.3429 66.4253 60.4865C65.9013 60.6862 65.3486 60.897 64.9384 61.0518C64.2335 61.3179 60.4434 62.7584 56.5161 64.254C53.8963 65.2578 51.5168 66.1636 50.1603 66.68C49.4833 66.9377 49.0611 67.0984 48.991 67.1259C48.6797 67.2452 48.5515 67.2452 48.341 67.1626ZM34.0506 86.1372C36.8702 87.2107 39.1955 88.0732 39.2229 88.0548C39.2413 88.0273 39.2504 81.0082 39.2413 72.4568L39.2138 56.9046L37.1998 59.7031C36.0921 61.2353 34.4534 63.5108 33.5654 64.7495C32.0548 66.8415 31.7161 67.236 31.4049 67.2452C31.3408 67.2452 28.8049 66.3001 25.7747 65.144C22.7446 63.9879 18.2496 62.2721 15.787 61.3271C13.3244 60.3912 11.2829 59.6021 11.2371 59.5746C11.1914 59.5471 11.1548 63.3824 11.1548 68.4655V77.4023L14.4779 78.6685C14.974 78.8584 15.4681 79.0476 15.9319 79.2252C17.1711 79.6998 18.1937 80.0914 18.4602 80.1916L19.1193 80.4393L20.7214 81.0357L24.0445 82.2927L27.3585 83.5497L28.9148 84.1737L34.0506 86.1372Z"/>
</mask>
<path fill-rule="evenodd" clip-rule="evenodd" d="M14.0019 11.1564C15.7779 5.82551 20.2087 2.02692 25.7015 1.13691C26.2508 1.04516 27.0381 1.01763 28.3197 1.03598C30.2514 1.07269 31.2492 1.20114 32.6682 1.60486C33.6478 1.88929 35.4421 2.77012 36.2843 3.37569C37.1815 4.03632 38.4265 5.28416 39.2413 6.36684C39.6166 6.87149 39.9553 7.28438 39.9919 7.28438C40.0286 7.28438 40.3673 6.87149 40.7426 6.36684C41.5482 5.30251 42.7933 4.03632 43.6721 3.39404C44.8439 2.54074 46.6108 1.74249 48.048 1.42135C49.9156 0.990105 52.4789 0.879997 54.2366 1.13691C60.416 2.06361 65.3503 6.92654 66.5313 13.2575C67.3003 17.3681 66.8517 20.9465 65.1123 24.4698C63.437 27.8647 60.5442 31.0668 55.445 35.1682C54.4929 35.9206 53.7239 36.572 53.7239 36.5996C53.7239 36.6271 53.9162 36.7188 54.1634 36.8014C56.3971 37.5446 70.0009 42.5085 70.1291 42.6278C70.2298 42.7195 70.4861 43.0406 70.6967 43.3434C70.9072 43.6462 72.6466 46.0593 74.5599 48.711C78.8487 54.6478 79.0175 54.8637 78.9989 55.062C78.9965 55.088 78.9908 55.1138 78.9908 55.1521C78.9908 55.6751 78.7802 55.7852 74.505 57.4092L70.4312 58.9599L70.3854 68.649C70.3488 77.2646 70.3213 78.3565 70.1932 78.485C70.1199 78.5584 68.9664 79.0447 67.6299 79.5493L67.4697 79.6102C66.1712 80.1038 64.6082 80.698 63.9314 80.9623C63.5568 81.1037 62.4327 81.5326 60.9518 82.0977C59.6457 82.5961 58.062 83.2004 56.4703 83.8067C54.4988 84.5576 52.444 85.3426 50.8592 85.948C49.7139 86.3856 48.814 86.7294 48.3685 86.8987C47.3157 87.3025 45.8692 87.853 45.1643 88.1191C44.4594 88.3851 43.0588 88.9173 42.0609 89.3027C41.0539 89.688 40.1293 90 39.9919 90C39.8638 90 35.4787 88.3668 30.2422 86.3666C25.0058 84.3755 18.2954 81.8156 15.3201 80.6779C12.354 79.5493 9.86395 78.5584 9.78156 78.485C9.66255 78.3565 9.63508 77.1912 9.59846 68.649L9.55269 58.9507L5.52464 57.4276C2.705 56.3632 1.42335 55.8311 1.24941 55.6567C0.800835 55.2347 0.874072 55.042 2.16488 53.2344C6.60489 47.0503 9.64424 42.8571 9.80902 42.6828C9.92803 42.5544 10.6696 42.2424 11.6583 41.8846C12.5646 41.5634 15.5124 40.5083 18.2038 39.5357C20.8953 38.5723 23.8157 37.5263 24.6853 37.2143C25.5459 36.9024 26.2508 36.6179 26.2416 36.5812C26.2233 36.5445 25.5276 35.9665 24.6945 35.2967C18.1306 30.0392 14.9082 25.9562 13.6631 21.3226C12.8026 18.1204 12.9216 14.3861 14.0019 11.1564ZM34.0048 3.85281C33.0527 3.35735 32.2654 3.09126 31.0204 2.82517C29.8669 2.57744 26.9282 2.50404 25.848 2.69672C23.9255 3.0362 21.6368 4.02714 20.1172 5.16488C18.5151 6.37602 16.9405 8.31202 16.1074 10.092C14.4779 13.5695 14.2033 17.9553 15.3751 21.5796C15.9518 23.3687 17.2609 25.6901 18.6341 27.3692C20.8678 30.0851 22.8636 31.8834 28.8416 36.5445C30.645 37.9483 32.7689 39.6366 33.5562 40.2972C35.2407 41.6919 38.0603 44.4812 38.8842 45.5639C39.8088 46.7658 40.175 46.7658 41.0905 45.5822C41.4018 45.1785 42.1799 44.3068 42.8116 43.6462C44.789 41.6001 46.4734 40.1688 51.481 36.2784C54.7401 33.7369 56.3513 32.4156 57.8344 31.0668C63.199 26.1672 65.5609 21.497 65.3137 16.267C65.1306 12.3308 63.8581 9.11945 61.4779 6.63293C60.3519 5.44932 59.3266 4.69694 57.7978 3.93539C55.6006 2.83434 54.0718 2.51321 51.481 2.58662C48.048 2.69672 45.6861 3.57755 43.5897 5.53189C42.7841 6.28427 42.1891 7.02747 41.2278 8.468C40.4405 9.65162 40.2208 9.82595 39.7448 9.66079C39.5708 9.60574 39.3328 9.33965 39.0124 8.84418C37.2822 6.17416 35.9456 4.84375 34.0048 3.85281ZM37.9962 46.9585C35.6343 44.1325 33.6569 42.2975 29.2077 38.8292C28.4754 38.2603 27.8345 37.7924 27.7796 37.8015C27.7247 37.8015 26.8367 38.1043 25.8022 38.4805C25.2664 38.6754 24.1044 39.0917 22.6799 39.6021C21.3541 40.0772 19.8009 40.6337 18.3137 41.1689C15.2194 42.2791 12.7294 43.2058 12.7751 43.2333C12.8117 43.2609 16.8215 44.7931 21.6826 46.6466C22.8199 47.0802 24.0233 47.5389 25.2325 47.9998C29.1918 49.509 33.213 51.0418 35.1766 51.7939C37.7399 52.7757 39.9095 53.5739 40.0011 53.5739C40.0835 53.5739 43.2968 52.372 47.1417 50.9039C52.991 48.6738 57.1596 47.0833 60.0873 45.9662C63.9413 44.4957 65.6451 43.8456 66.2017 43.637C66.7419 43.4352 67.1813 43.2425 67.1813 43.2058C67.1813 43.1508 52.7993 37.9575 52.2958 37.8291C52.1585 37.7924 51.7099 38.0951 50.5106 39.0402C45.9242 42.6553 44.1573 44.2885 42.125 46.8117C41.3926 47.7109 40.8616 48.0045 39.9919 48.0045C39.1589 48.0045 38.6279 47.7292 37.9962 46.9585ZM38.637 54.8401C38.5821 54.7851 30.05 51.5187 14.4962 45.5914C12.5371 44.839 10.8618 44.2059 10.7886 44.1784C10.7062 44.1417 10.6055 44.1967 10.5231 44.3252C10.4498 44.4353 9.80902 45.3345 9.09496 46.3254C8.38089 47.3072 6.81545 49.4726 5.61619 51.1425C4.65543 52.4832 3.76029 53.7162 3.38836 54.2286C3.29957 54.3509 3.2406 54.4321 3.21767 54.4639L2.9888 54.7667L3.19936 54.8493C3.23903 54.8646 3.68659 55.0349 4.43254 55.3186C5.92441 55.8861 8.60977 56.9076 11.6125 58.0515C13.6117 58.8131 15.5892 59.5674 17.2449 60.199C19.3194 60.9903 20.8887 61.5889 21.3622 61.7675C25.0424 63.1805 30.8647 65.3918 30.9929 65.4285C31.1302 65.4652 38.7286 54.9319 38.637 54.8401ZM70.9544 46.4024C70.6118 45.9254 70.3159 45.5132 70.1291 45.2519C69.6897 44.6372 69.3143 44.1325 69.2868 44.1417C69.2594 44.1417 67.4925 44.8115 65.3503 45.6373C56.8914 48.8853 42.1158 54.519 41.7039 54.6566C41.4567 54.7392 41.2827 54.8493 41.3102 54.9044C41.3285 54.9686 41.7954 55.6292 42.3355 56.3816C42.583 56.7263 42.9208 57.1943 43.275 57.685C43.6938 58.2652 44.1355 58.8771 44.4777 59.3544C48.2128 64.5293 48.8994 65.456 48.991 65.4285C49.0551 65.4101 51.8198 64.3641 55.1429 63.0979C58.466 61.8317 61.8624 60.538 62.6955 60.226C63.0872 60.0762 64.635 59.485 66.5711 58.7455C70.563 57.2207 76.2052 55.0656 76.7662 54.8493C76.9676 54.7759 76.9218 54.7025 75.9606 53.3721C75.4113 52.6013 74.7339 51.6563 74.4592 51.2801C74.1937 50.9039 73.2874 49.6377 72.4452 48.4816C71.9662 47.8117 71.4177 47.0477 70.9544 46.4024ZM48.341 67.1626C48.1487 67.08 47.1143 65.7221 44.4777 62.0519C42.5003 59.3085 40.8525 57.0606 40.825 57.0606C40.7609 57.0606 40.7792 87.9723 40.8342 88.0365C40.8708 88.064 48.6065 85.1371 57.34 81.7881C60.3611 80.632 68.3439 77.5858 68.5819 77.5032L68.8291 77.4114V68.5205C68.8291 63.3732 68.7925 59.6297 68.7467 59.6297C68.701 59.6297 68.1151 59.8407 67.4468 60.0976C67.1635 60.205 66.8018 60.3429 66.4253 60.4865C65.9013 60.6862 65.3486 60.897 64.9384 61.0518C64.2335 61.3179 60.4434 62.7584 56.5161 64.254C53.8963 65.2578 51.5168 66.1636 50.1603 66.68C49.4833 66.9377 49.0611 67.0984 48.991 67.1259C48.6797 67.2452 48.5515 67.2452 48.341 67.1626ZM34.0506 86.1372C36.8702 87.2107 39.1955 88.0732 39.2229 88.0548C39.2413 88.0273 39.2504 81.0082 39.2413 72.4568L39.2138 56.9046L37.1998 59.7031C36.0921 61.2353 34.4534 63.5108 33.5654 64.7495C32.0548 66.8415 31.7161 67.236 31.4049 67.2452C31.3408 67.2452 28.8049 66.3001 25.7747 65.144C22.7446 63.9879 18.2496 62.2721 15.787 61.3271C13.3244 60.3912 11.2829 59.6021 11.2371 59.5746C11.1914 59.5471 11.1548 63.3824 11.1548 68.4655V77.4023L14.4779 78.6685C14.974 78.8584 15.4681 79.0476 15.9319 79.2252C17.1711 79.6998 18.1937 80.0914 18.4602 80.1916L19.1193 80.4393L20.7214 81.0357L24.0445 82.2927L27.3585 83.5497L28.9148 84.1737L34.0506 86.1372Z" fill="#E84438"/>
<path d="M67.3808 79.3765C67.4347 79.356 67.4881 79.3357 67.541 79.3156L67.7187 79.783C67.6658 79.8031 67.6124 79.8234 67.5585 79.8439L67.3808 79.3765ZM25.7015 1.13691L25.7839 1.63008L25.7815 1.63047L25.7015 1.13691ZM14.0019 11.1564L14.4762 11.3144L14.476 11.315L14.0019 11.1564ZM13.6631 21.3226L14.146 21.1929L14.146 21.1929L13.6631 21.3226ZM24.6945 35.2967L25.0071 34.9064L25.0078 34.907L24.6945 35.2967ZM26.2416 36.5812L26.6891 36.358L26.7135 36.407L26.7268 36.4602L26.2416 36.5812ZM24.6853 37.2143L24.8558 37.6844L24.8542 37.685L24.6853 37.2143ZM18.2038 39.5357L18.0339 39.0654L18.0353 39.0649L18.2038 39.5357ZM11.6583 41.8846L11.4881 41.4144L11.4913 41.4133L11.6583 41.8846ZM9.80902 42.6828L10.1758 43.0226L10.1724 43.0263L9.80902 42.6828ZM2.16488 53.2344L1.75798 52.9439L1.75872 52.9428L2.16488 53.2344ZM1.24941 55.6567L1.59204 55.2926L1.59779 55.298L1.60337 55.3036L1.24941 55.6567ZM5.52464 57.4276L5.70122 56.9598L5.70148 56.9599L5.52464 57.4276ZM9.55269 58.9507L9.72953 58.483L10.0511 58.6046L10.0527 58.9483L9.55269 58.9507ZM9.59846 68.649L10.0985 68.6466L10.0985 68.6469L9.59846 68.649ZM9.78156 78.485L9.44896 78.8583L9.43106 78.8424L9.41478 78.8248L9.78156 78.485ZM15.3201 80.6779L15.4979 80.2105L15.4987 80.2108L15.3201 80.6779ZM30.2422 86.3666L30.4199 85.8992L30.4206 85.8995L30.2422 86.3666ZM42.0609 89.3027L42.241 89.7691L42.2396 89.7696L42.0609 89.3027ZM48.3685 86.8987L48.1894 86.4319L48.1908 86.4314L48.3685 86.8987ZM56.4703 83.8067L56.6483 84.2739L56.4703 83.8067ZM63.9314 80.9623L64.1133 81.4281L64.108 81.4301L63.9314 80.9623ZM67.6299 79.5493L67.4522 79.0819L67.4532 79.0815L67.6299 79.5493ZM70.1932 78.485L69.8392 78.1318L70.1932 78.485ZM70.3854 68.649L69.8854 68.6469V68.6466L70.3854 68.649ZM70.4312 58.9599L69.9312 58.9575L69.9328 58.6146L70.2533 58.4926L70.4312 58.9599ZM74.505 57.4092L74.3271 56.9419L74.3275 56.9418L74.505 57.4092ZM74.5599 48.711L74.1546 49.0038L74.1545 49.0036L74.5599 48.711ZM70.1291 42.6278L69.7923 42.9974L69.7884 42.9938L70.1291 42.6278ZM54.1634 36.8014L54.0055 37.2759L54.0049 37.2757L54.1634 36.8014ZM55.445 35.1682L55.7584 35.5578L55.755 35.5605L55.445 35.1682ZM65.1123 24.4698L64.664 24.2485L64.664 24.2484L65.1123 24.4698ZM66.5313 13.2575L66.0398 13.3495L66.0398 13.3492L66.5313 13.2575ZM54.2366 1.13691L54.3089 0.642159L54.3107 0.642441L54.2366 1.13691ZM48.048 1.42135L48.1605 1.90854L48.1571 1.90932L48.048 1.42135ZM43.6721 3.39404L43.3771 2.99036L43.3778 2.98985L43.6721 3.39404ZM40.7426 6.36684L40.3414 6.06844L40.3439 6.06509L40.7426 6.36684ZM39.2413 6.36684L39.6408 6.06619L39.6425 6.06845L39.2413 6.36684ZM36.2843 3.37569L36.5762 2.9697L36.5808 2.97307L36.2843 3.37569ZM32.6682 1.60486L32.805 1.12393L32.8076 1.12469L32.6682 1.60486ZM28.3197 1.03598L28.3269 0.536026L28.3292 0.536072L28.3197 1.03598ZM31.0204 2.82517L30.9159 3.31413L30.9154 3.31403L31.0204 2.82517ZM34.0048 3.85281L33.7774 4.29813L33.774 4.29635L34.0048 3.85281ZM39.0124 8.84418L39.432 8.57227L39.4322 8.57267L39.0124 8.84418ZM39.7448 9.66079L39.8957 9.18392L39.9086 9.18842L39.7448 9.66079ZM41.2278 8.468L40.8115 8.19109L40.8119 8.19048L41.2278 8.468ZM43.5897 5.53189L43.2484 5.16647L43.2488 5.16617L43.5897 5.53189ZM51.481 2.58662L51.465 2.08687L51.4669 2.08681L51.481 2.58662ZM57.7978 3.93539L57.5748 4.38293L57.5737 4.38239L57.7978 3.93539ZM61.4779 6.63293L61.1167 6.97868L61.1157 6.97756L61.4779 6.63293ZM65.3137 16.267L64.8143 16.2906L64.8143 16.2903L65.3137 16.267ZM57.8344 31.0668L58.1716 31.436L58.1708 31.4367L57.8344 31.0668ZM51.481 36.2784L51.7885 36.6727L51.7878 36.6733L51.481 36.2784ZM42.8116 43.6462L42.4502 43.3007L42.452 43.2988L42.8116 43.6462ZM41.0905 45.5822L41.4865 45.8875L41.486 45.8881L41.0905 45.5822ZM38.8842 45.5639L38.4879 45.8687L38.4863 45.8667L38.8842 45.5639ZM33.5562 40.2972L33.2373 40.6824L33.2348 40.6803L33.5562 40.2972ZM28.8416 36.5445L28.5344 36.9391L28.5341 36.9388L28.8416 36.5445ZM18.6341 27.3692L18.2479 27.6868L18.2471 27.6857L18.6341 27.3692ZM15.3751 21.5796L15.8508 21.4257L15.8509 21.4261L15.3751 21.5796ZM16.1074 10.092L16.5603 10.304L16.5602 10.3042L16.1074 10.092ZM20.1172 5.16488L19.8156 4.76602L19.8175 4.76463L20.1172 5.16488ZM25.848 2.69672L25.9358 3.18895L25.9349 3.18909L25.848 2.69672ZM29.2077 38.8292L29.5145 38.4343L29.5151 38.4348L29.2077 38.8292ZM37.9962 46.9585L38.3799 46.6379L38.3829 46.6416L37.9962 46.9585ZM42.125 46.8117L42.5144 47.1254L42.5127 47.1275L42.125 46.8117ZM50.5106 39.0402L50.2011 38.6475L50.2012 38.6475L50.5106 39.0402ZM52.2958 37.8291L52.1722 38.3136L52.1667 38.3121L52.2958 37.8291ZM66.2017 43.637L66.0263 43.1688L66.0267 43.1687L66.2017 43.637ZM47.1417 50.9039L46.9634 50.4368L46.9636 50.4367L47.1417 50.9039ZM35.1766 51.7939L34.9977 52.2608L35.1766 51.7939ZM21.6826 46.6466L21.5045 47.1138H21.5045L21.6826 46.6466ZM12.7751 43.2333L13.0328 42.8048L13.0549 42.8181L13.0756 42.8337L12.7751 43.2333ZM18.3137 41.1689L18.483 41.6394L18.4826 41.6395L18.3137 41.1689ZM25.8022 38.4805L25.6313 38.0106H25.6313L25.8022 38.4805ZM27.7796 37.8015L27.862 38.2947L27.8211 38.3015H27.7796V37.8015ZM14.4962 45.5914L14.3182 46.0586L14.3169 46.0582L14.4962 45.5914ZM38.637 54.8401L38.991 54.487L38.637 54.8401ZM30.9929 65.4285L30.8638 65.9116L30.8553 65.9091L30.9929 65.4285ZM21.3622 61.7675L21.5387 61.2997L21.5414 61.3007L21.3622 61.7675ZM11.6125 58.0515L11.4345 58.5187L11.6125 58.0515ZM3.19936 54.8493L3.01952 55.3159L3.0168 55.3148L3.19936 54.8493ZM2.9888 54.7667L2.80624 55.2322L2.19222 54.9914L2.58993 54.4652L2.9888 54.7667ZM3.21767 54.4639L3.62342 54.7563L3.61654 54.7654L3.21767 54.4639ZM5.61619 51.1425L5.20977 50.8512L5.21006 50.8508L5.61619 51.1425ZM9.09496 46.3254L9.50061 46.6177L9.49931 46.6195L9.09496 46.3254ZM10.5231 44.3252L10.944 44.5952L10.9394 44.6021L10.5231 44.3252ZM10.7886 44.1784L10.6127 44.6464L10.5987 44.6412L10.5851 44.6351L10.7886 44.1784ZM70.1291 45.2519L69.7223 45.5427L70.1291 45.2519ZM72.4452 48.4816L72.0411 48.776L72.0385 48.7724L72.4452 48.4816ZM74.4592 51.2801L74.0554 51.575L74.0507 51.5684L74.4592 51.2801ZM75.9606 53.3721L75.5553 53.6649L75.5534 53.6623L75.9606 53.3721ZM76.7662 54.8493L76.5863 54.3827L76.595 54.3795L76.7662 54.8493ZM62.6955 60.226L62.8741 60.6931L62.8708 60.6943L62.6955 60.226ZM48.991 65.4285L48.847 64.9496L48.8533 64.9478L48.991 65.4285ZM44.4777 59.3544L44.0723 59.647L44.0714 59.6458L44.4777 59.3544ZM42.3355 56.3816L42.7417 56.09L42.3355 56.3816ZM41.3102 54.9044L41.7576 54.6812L41.7783 54.7227L41.7911 54.7673L41.3102 54.9044ZM41.7039 54.6566L41.5454 54.1824L41.7039 54.6566ZM65.3503 45.6373L65.5302 46.1038L65.5296 46.104L65.3503 45.6373ZM69.2868 44.1417L69.4453 44.6159L69.3682 44.6417H69.2868V44.1417ZM39.2229 88.0548L39.6393 88.3317L39.5839 88.415L39.5007 88.4706L39.2229 88.0548ZM34.0506 86.1372L33.8727 86.6045L33.872 86.6042L34.0506 86.1372ZM28.9148 84.1737L28.7362 84.6408L28.7287 84.6378L28.9148 84.1737ZM19.1193 80.4393L18.9449 80.9079L18.9434 80.9073L19.1193 80.4393ZM18.4602 80.1916L18.2843 80.6596L18.4602 80.1916ZM14.4779 78.6685L14.6559 78.2012L14.6566 78.2015L14.4779 78.6685ZM11.1548 77.4023L10.9767 77.8695L10.6548 77.7468V77.4023H11.1548ZM15.787 61.3271L15.9646 60.8597L15.9662 60.8603L15.787 61.3271ZM31.4049 67.2452L31.4196 67.745L31.4122 67.7452H31.4049V67.2452ZM33.5654 64.7495L33.9717 65.0408L33.9707 65.0422L33.5654 64.7495ZM37.1998 59.7031L37.6056 59.9951L37.605 59.996L37.1998 59.7031ZM39.2138 56.9046L38.808 56.6125L39.7111 55.3577L39.7138 56.9037L39.2138 56.9046ZM39.2413 72.4568L39.7413 72.4559V72.4562L39.2413 72.4568ZM44.4777 62.0519L44.8833 61.7596L44.8838 61.7602L44.4777 62.0519ZM48.341 67.1626L48.1584 67.6281L48.151 67.6252L48.1437 67.622L48.341 67.1626ZM48.991 67.1259L49.1735 67.5914L49.1699 67.5928L48.991 67.1259ZM56.5161 64.254L56.3372 63.7871L56.3382 63.7868L56.5161 64.254ZM64.9384 61.0518L65.115 61.5196H65.115L64.9384 61.0518ZM67.4468 60.0976L67.6262 60.5643L67.6241 60.5651L67.4468 60.0976ZM68.8291 77.4114H69.3291V77.7592L69.0031 77.8802L68.8291 77.4114ZM68.5819 77.5032L68.756 77.9721L68.7458 77.9756L68.5819 77.5032ZM57.34 81.7881L57.161 81.3212L57.1613 81.3211L57.34 81.7881ZM40.8342 88.0365L40.5337 88.4362L40.4899 88.4032L40.4542 88.3615L40.8342 88.0365ZM27.3585 83.5497L27.5359 83.0822L27.5446 83.0856L27.3585 83.5497ZM24.0445 82.2927L24.2214 81.8251L24.2218 81.8252L24.0445 82.2927ZM20.7214 81.0357L20.8958 80.5671L20.8983 80.568L20.7214 81.0357ZM78.9989 55.062L78.5011 55.0153V55.0153L78.9989 55.062ZM67.4697 79.6102L67.6473 80.0776L67.6473 80.0776L67.4697 79.6102ZM60.9518 82.0977L61.13 82.5648V82.5648L60.9518 82.0977ZM50.8592 85.948L51.0377 86.4151L50.8592 85.948ZM22.6799 39.6021L22.5113 39.1314L22.6799 39.6021ZM25.2325 47.9998L25.4106 47.5326L25.2325 47.9998ZM60.0873 45.9662L59.9091 45.499L60.0873 45.9662ZM3.38836 54.2286L2.98373 53.9348L2.98373 53.9348L3.38836 54.2286ZM4.43254 55.3186L4.61031 54.8513H4.61031L4.43254 55.3186ZM17.2449 60.199L17.4231 59.7318H17.4231L17.2449 60.199ZM70.9544 46.4024L70.5482 46.6941V46.6941L70.9544 46.4024ZM43.275 57.685L43.6804 57.3924L43.275 57.685ZM66.5711 58.7455L66.7495 59.2126L66.5711 58.7455ZM66.4253 60.4865L66.2472 60.0193L66.4253 60.4865ZM50.1603 66.68L50.3382 67.1473H50.3382L50.1603 66.68ZM15.9319 79.2252L15.7531 79.6921H15.7531L15.9319 79.2252ZM25.7815 1.63047C20.475 2.4903 16.1943 6.15752 14.4762 11.3144L13.5275 10.9983C15.3615 5.49349 19.9425 1.56354 25.6215 0.643349L25.7815 1.63047ZM14.476 11.315C13.4263 14.4534 13.3115 18.0874 14.146 21.1929L13.1803 21.4524C12.2937 18.1535 12.4169 14.3188 13.5277 10.9978L14.476 11.315ZM14.146 21.1929C15.3494 25.6715 18.4708 29.671 25.0071 34.9064L24.3819 35.6869C17.7905 30.4074 14.4669 26.2408 13.1803 21.4524L14.146 21.1929ZM25.0078 34.907C25.4258 35.2431 25.8102 35.5568 26.093 35.7917C26.2342 35.9089 26.3518 36.0079 26.4362 36.0809C26.4779 36.1169 26.5145 36.1492 26.5427 36.1751C26.5563 36.1876 26.5721 36.2025 26.5869 36.2176C26.5941 36.2248 26.6053 36.2365 26.6175 36.2507C26.6209 36.2547 26.6585 36.2968 26.6891 36.358L25.7942 36.8044C25.8121 36.8402 25.8303 36.8655 25.8375 36.8753C25.8465 36.8876 25.8542 36.8968 25.8584 36.9017C25.8669 36.9115 25.873 36.9178 25.8738 36.9186C25.8761 36.9209 25.8742 36.9189 25.8654 36.9108C25.8488 36.8955 25.8215 36.8713 25.7825 36.8376C25.7053 36.7709 25.5934 36.6766 25.4542 36.561C25.1763 36.3303 24.7962 36.02 24.3812 35.6863L25.0078 34.907ZM26.7268 36.4602C26.7785 36.6676 26.6843 36.8213 26.6554 36.8643C26.6181 36.9198 26.5779 36.9557 26.5606 36.9705C26.5224 37.0033 26.4852 37.0259 26.4676 37.0363C26.4263 37.0608 26.3787 37.0843 26.3357 37.1044C26.2453 37.1468 26.1215 37.1995 25.9776 37.2579C25.6874 37.3756 25.2898 37.527 24.8558 37.6844L24.5149 36.7443C24.9415 36.5896 25.3266 36.4428 25.6016 36.3312C25.7404 36.2749 25.8448 36.2301 25.911 36.1991C25.9462 36.1825 25.9589 36.1754 25.9578 36.176C25.9565 36.1768 25.952 36.1795 25.9453 36.184C25.9394 36.188 25.9262 36.1972 25.9097 36.2114C25.8972 36.2221 25.8606 36.2542 25.8254 36.3065C25.7987 36.3462 25.7053 36.4972 25.7565 36.7022L26.7268 36.4602ZM24.8542 37.685C23.9843 37.997 21.0638 39.043 18.3723 40.0064L18.0353 39.0649C20.7268 38.1015 23.647 37.0556 24.5165 36.7437L24.8542 37.685ZM18.3738 40.0059C15.6818 40.9787 12.7329 42.0342 11.8253 42.3559L11.4913 41.4133C12.3962 41.0926 15.343 40.0378 18.0339 39.0654L18.3738 40.0059ZM11.8284 42.3547C11.3388 42.5319 10.9161 42.6957 10.6044 42.8293C10.448 42.8963 10.3259 42.953 10.2399 42.9978C10.1967 43.0203 10.1683 43.0367 10.1518 43.0473C10.1284 43.0623 10.1468 43.054 10.1758 43.0226L9.44224 42.343C9.50102 42.2796 9.56863 42.2333 9.61239 42.2053C9.66306 42.1728 9.7199 42.1411 9.7784 42.1106C9.89576 42.0496 10.0432 41.9818 10.2106 41.9101C10.5466 41.7661 10.989 41.595 11.4881 41.4144L11.8284 42.3547ZM10.1724 43.0263C10.1769 43.0215 10.1339 43.0746 10.0154 43.2326C9.90936 43.374 9.76095 43.5746 9.57255 43.8313C9.19597 44.3443 8.66255 45.0771 7.99505 45.9983C6.66019 47.8406 4.79081 50.4343 2.57104 53.5261L1.75872 52.9428C3.97896 49.8504 5.84926 47.2555 7.18527 45.4116C7.8532 44.4897 8.38802 43.755 8.76642 43.2395C8.9555 42.9819 9.10627 42.7781 9.21534 42.6326C9.31196 42.5038 9.39999 42.3877 9.44566 42.3394L10.1724 43.0263ZM2.57178 53.525C2.24869 53.9774 2.00802 54.3202 1.83333 54.5888C1.65517 54.8627 1.56423 55.0318 1.52256 55.142C1.48464 55.2423 1.50957 55.2359 1.49491 55.1929C1.48821 55.1733 1.4858 55.1926 1.59204 55.2926L0.906785 56.0209C0.788738 55.9098 0.627264 55.7468 0.548472 55.5158C0.461724 55.2615 0.501526 55.0149 0.58719 54.7883C0.669115 54.5716 0.810473 54.3273 0.995063 54.0435C1.18313 53.7544 1.43567 53.3952 1.75798 52.9439L2.57178 53.525ZM1.60337 55.3036C1.57643 55.2766 1.56741 55.2771 1.61905 55.3072C1.66066 55.3314 1.72323 55.3644 1.81157 55.407C1.98766 55.4919 2.24221 55.6039 2.58632 55.7465C3.2732 56.0312 4.29235 56.428 5.70122 56.9598L5.34806 57.8954C3.9373 57.3628 2.9058 56.9614 2.20346 56.6703C1.85296 56.525 1.57826 56.4047 1.377 56.3076C1.27667 56.2592 1.18855 56.2137 1.11576 56.1713C1.053 56.1347 0.965879 56.0805 0.895461 56.0099L1.60337 55.3036ZM5.70148 56.9599L9.72953 58.483L9.37585 59.4184L5.3478 57.8953L5.70148 56.9599ZM10.0527 58.9483L10.0985 68.6466L9.09847 68.6514L9.0527 58.953L10.0527 58.9483ZM10.0985 68.6469C10.1168 72.9193 10.1328 75.342 10.159 76.7126C10.1722 77.4001 10.1878 77.812 10.2064 78.0571C10.2159 78.1814 10.2251 78.2468 10.2312 78.2774C10.2428 78.3352 10.2371 78.2409 10.1483 78.1451L9.41478 78.8248C9.2963 78.6969 9.26362 78.5381 9.2508 78.4742C9.23253 78.3832 9.21975 78.2697 9.20934 78.1332C9.18826 77.8567 9.17237 77.4193 9.1592 76.7317C9.1328 75.352 9.11677 72.9209 9.09847 68.6511L10.0985 68.6469ZM10.1142 78.1116C10.0878 78.0881 10.0654 78.0736 10.0592 78.0695C10.0501 78.0636 10.0435 78.0599 10.0415 78.0588C10.0375 78.0565 10.0379 78.0569 10.0456 78.0607C10.0604 78.068 10.086 78.0799 10.1245 78.097C10.2006 78.1308 10.3118 78.1781 10.4562 78.238C10.744 78.3574 11.153 78.5223 11.6538 78.7209C12.6548 79.1179 14.0166 79.6469 15.4979 80.2105L15.1423 81.1452C13.6575 80.5802 12.2913 80.0495 11.2851 79.6505C10.7823 79.4511 10.3679 79.284 10.073 79.1617C9.92605 79.1007 9.80597 79.0497 9.71854 79.0109C9.67534 78.9917 9.63603 78.9737 9.60387 78.9579C9.58812 78.9501 9.56953 78.9406 9.55106 78.9302C9.54432 78.9265 9.49617 78.9003 9.44896 78.8583L10.1142 78.1116ZM15.4987 80.2108C18.4737 81.3485 25.1838 83.9083 30.4199 85.8992L30.0645 86.8339C24.8278 84.8428 18.1171 82.2827 15.1415 81.1449L15.4987 80.2108ZM30.4206 85.8995C33.038 86.8992 35.442 87.8071 37.2073 88.4648C38.0901 88.7938 38.812 89.0597 39.3206 89.2432C39.5752 89.3351 39.7742 89.4056 39.9124 89.4527C39.982 89.4764 40.0327 89.4931 40.066 89.5033C40.074 89.5058 40.0803 89.5077 40.0851 89.5091C40.0875 89.5097 40.0893 89.5102 40.0906 89.5106C40.0919 89.511 40.0925 89.5111 40.0924 89.5111C40.0924 89.5111 40.0913 89.5108 40.0893 89.5103C40.0874 89.5099 40.0837 89.5091 40.0784 89.508C40.0772 89.5078 40.0407 89.5 39.9919 89.5V90.5C39.9391 90.5 39.8966 90.4914 39.8872 90.4896C39.8696 90.4862 39.854 90.4823 39.8427 90.4794C39.8196 90.4735 39.795 90.4662 39.7717 90.459C39.7241 90.4444 39.6624 90.424 39.5896 90.3992C39.443 90.3492 39.2375 90.2764 38.9811 90.1839C38.4678 89.9986 37.7421 89.7313 36.8581 89.4019C35.0897 88.743 32.683 87.8341 30.0638 86.8337L30.4206 85.8995ZM39.9919 89.5C39.9456 89.5 39.9244 89.5083 39.967 89.4985C39.9946 89.4922 40.036 89.4813 40.0924 89.465C40.2044 89.4325 40.3567 89.384 40.5405 89.3221C40.9071 89.1985 41.3836 89.0265 41.8822 88.8357L42.2396 89.7696C41.7312 89.9642 41.2418 90.1409 40.86 90.2696C40.6696 90.3338 40.5022 90.3874 40.3707 90.4255C40.3053 90.4444 40.2441 90.4609 40.191 90.4731C40.1528 90.4819 40.0726 90.5 39.9919 90.5V89.5ZM41.8808 88.8362C42.8802 88.4503 44.2822 87.9176 44.9877 87.6513L45.3409 88.5868C44.6366 88.8527 43.2373 89.3844 42.241 89.7691L41.8808 88.8362ZM44.9877 87.6513C45.6917 87.3856 47.1373 86.8354 48.1894 86.4319L48.5475 87.3656C47.4941 87.7695 46.0468 88.3204 45.3409 88.5868L44.9877 87.6513ZM67.4532 79.0815C68.1169 78.831 68.7341 78.5853 69.1927 78.394C69.4226 78.2981 69.6096 78.2171 69.7415 78.1567C69.8081 78.1262 69.8561 78.103 69.887 78.087C69.9027 78.0789 69.909 78.0752 69.9088 78.0753C69.9087 78.0754 69.9032 78.0786 69.8947 78.0847C69.8889 78.0887 69.866 78.1049 69.8392 78.1318L70.5471 78.8381C70.4951 78.8903 70.4386 78.9235 70.4252 78.9316C70.3994 78.9472 70.3721 78.962 70.3467 78.9751C70.2952 79.0018 70.2306 79.0326 70.1579 79.0659C70.0112 79.133 69.8126 79.2189 69.5778 79.3169C69.1073 79.5132 68.4794 79.763 67.8065 80.0171L67.4532 79.0815ZM69.8392 78.1318C69.7472 78.2241 69.7382 78.3174 69.7486 78.2705C69.7543 78.2449 69.7638 78.1848 69.7738 78.0641C69.7936 77.8264 69.81 77.4227 69.8237 76.7396C69.8511 75.3785 69.8671 72.9562 69.8854 68.6469L70.8854 68.6511C70.8671 72.9574 70.8511 75.3889 70.8235 76.7597C70.8098 77.4426 70.793 77.8745 70.7704 78.1468C70.7593 78.2812 70.7453 78.3948 70.7248 78.4871C70.7091 78.5581 70.6712 78.7137 70.5471 78.8381L69.8392 78.1318ZM69.8854 68.6466L69.9312 58.9575L70.9312 58.9622L70.8854 68.6514L69.8854 68.6466ZM70.2533 58.4926L74.3271 56.9419L74.6829 57.8765L70.6091 59.4271L70.2533 58.4926ZM74.3275 56.9418C76.4797 56.1242 77.5686 55.7023 78.1261 55.4213C78.4111 55.2776 78.485 55.2044 78.4992 55.1866C78.5001 55.1854 78.4977 55.1882 78.4945 55.1947C78.4913 55.2013 78.4893 55.2073 78.4884 55.211C78.4874 55.2149 78.4908 55.2048 78.4908 55.1521H79.4908C79.4908 55.3246 79.4736 55.5669 79.283 55.8075C79.124 56.0082 78.8781 56.162 78.5762 56.3143C77.9595 56.6251 76.8055 57.0702 74.6826 57.8766L74.3275 56.9418ZM74.1545 49.0036C72.2438 46.3556 70.5 43.9364 70.2862 43.6289L71.1072 43.058C71.3144 43.356 73.0494 45.7631 74.9654 48.4184L74.1545 49.0036ZM70.2862 43.6289C70.1872 43.4866 70.0769 43.3392 69.9802 43.2175C69.9319 43.1567 69.8886 43.1044 69.8532 43.0637C69.8355 43.0433 69.8209 43.0271 69.8094 43.0148C69.7971 43.0018 69.7918 42.9969 69.7923 42.9974L70.4658 42.2582C70.5498 42.3347 70.662 42.4681 70.7631 42.5954C70.8725 42.733 70.9956 42.8975 71.1072 43.058L70.2862 43.6289ZM69.7884 42.9938C69.8324 43.0347 69.8739 43.0572 69.8739 43.0572C69.8841 43.0631 69.8912 43.0666 69.8918 43.0669C69.8936 43.0678 69.8902 43.0661 69.8782 43.0609C69.8555 43.0509 69.8189 43.0357 69.7668 43.0148C69.6635 42.9733 69.5129 42.9147 69.3193 42.8407C68.9329 42.6929 68.384 42.487 67.7203 42.2403C66.3933 41.747 64.612 41.0925 62.7644 40.4183C59.0649 39.0683 55.1138 37.6446 54.0055 37.2759L54.3212 36.327C55.4466 36.7014 59.4143 38.1313 63.1072 39.4789C64.9558 40.1534 66.7391 40.8087 68.0687 41.3029C68.7333 41.55 69.2856 41.7572 69.6765 41.9066C69.8715 41.9812 70.0284 42.0422 70.1396 42.0869C70.1947 42.109 70.2421 42.1286 70.2785 42.1445C70.2961 42.1522 70.316 42.1611 70.3348 42.1704C70.3439 42.1749 70.3578 42.182 70.3734 42.1909C70.3786 42.194 70.4238 42.219 70.4697 42.2617L69.7884 42.9938ZM54.0049 37.2757C53.8675 37.2297 53.7396 37.1795 53.6402 37.1333C53.5925 37.1111 53.5392 37.0843 53.4916 37.0544C53.4699 37.0407 53.4319 37.0156 53.3933 36.9799C53.3743 36.9624 53.3414 36.9298 53.31 36.8827C53.2827 36.8416 53.2239 36.7415 53.2239 36.5996H54.2239C54.2239 36.4611 54.1667 36.3649 54.1423 36.3283C54.1138 36.2855 54.0853 36.2578 54.072 36.2456C54.0568 36.2314 54.0442 36.222 54.0378 36.2173C54.0308 36.2122 54.0259 36.209 54.024 36.2078C54.0202 36.2054 54.0304 36.2119 54.0617 36.2264C54.1202 36.2536 54.2121 36.2905 54.3218 36.3272L54.0049 37.2757ZM53.2239 36.5996C53.2239 36.4766 53.27 36.3885 53.279 36.3709C53.2954 36.3387 53.3119 36.3149 53.3203 36.3032C53.3379 36.2787 53.3546 36.26 53.3624 36.2513C53.3802 36.2318 53.3989 36.2135 53.413 36.1999C53.4433 36.1709 53.4831 36.1349 53.5282 36.0951C53.6199 36.0143 53.7495 35.9037 53.9066 35.7722C54.2217 35.5087 54.6556 35.1548 55.135 34.7759L55.755 35.5605C55.2823 35.934 54.8557 36.2821 54.5482 36.5392C54.3941 36.6681 54.272 36.7725 54.1897 36.8451C54.1478 36.882 54.1201 36.9073 54.1046 36.9221C54.0959 36.9305 54.0972 36.9297 54.1032 36.9231C54.1052 36.9209 54.1174 36.9075 54.132 36.8872C54.139 36.8775 54.1544 36.8555 54.17 36.8248C54.1782 36.8087 54.2239 36.7217 54.2239 36.5996H53.2239ZM55.1316 34.7786C60.2095 30.6943 63.0363 27.5469 64.664 24.2485L65.5607 24.691C63.8378 28.1824 60.8788 31.4394 55.7584 35.5578L55.1316 34.7786ZM64.664 24.2484C66.3521 20.8291 66.7904 17.3616 66.0398 13.3495L67.0228 13.1656C67.8102 17.3746 67.3514 21.0638 65.5607 24.6911L64.664 24.2484ZM66.0398 13.3492C64.8963 7.21912 60.1226 2.52521 54.1624 1.63138L54.3107 0.642441C60.7094 1.60203 65.8044 6.63397 67.0228 13.1658L66.0398 13.3492ZM54.1643 1.63165C52.4709 1.38414 49.9703 1.49064 48.1605 1.90853L47.9355 0.934166C49.8609 0.489578 52.4869 0.375862 54.3089 0.642166L54.1643 1.63165ZM48.1571 1.90932C46.7861 2.21564 45.0824 2.9856 43.9664 3.79823L43.3778 2.98985C44.6054 2.09589 46.4354 1.26933 47.939 0.93338L48.1571 1.90932ZM43.9671 3.79773C43.1359 4.40522 41.9244 5.63401 41.1413 6.66861L40.3439 6.06509C41.1721 4.97101 42.4506 3.66741 43.3771 2.99036L43.9671 3.79773ZM41.1438 6.66525C40.9527 6.92218 40.7693 7.15793 40.6271 7.33163C40.5567 7.4176 40.4924 7.49332 40.4402 7.55009C40.4153 7.57729 40.3857 7.60825 40.3557 7.63558C40.3417 7.64828 40.3169 7.67012 40.2853 7.69182C40.2696 7.70257 40.2421 7.72039 40.2057 7.73717C40.1773 7.75032 40.0986 7.78438 39.9919 7.78438V6.78438C39.8875 6.78438 39.8118 6.81763 39.7867 6.82919C39.7538 6.84438 39.7303 6.85983 39.7193 6.86742C39.6968 6.88283 39.6834 6.8953 39.6829 6.89573C39.6799 6.8985 39.6857 6.89326 39.7036 6.87386C39.737 6.83746 39.7876 6.77841 39.8534 6.69808C39.9835 6.53918 40.1572 6.31616 40.3414 6.06845L41.1438 6.66525ZM39.9919 7.78438C39.8853 7.78438 39.8066 7.75032 39.7781 7.73717C39.7418 7.72039 39.7142 7.70257 39.6986 7.69182C39.667 7.67012 39.6421 7.64828 39.6282 7.63558C39.5981 7.60825 39.5686 7.57729 39.5436 7.55009C39.4915 7.49332 39.4272 7.4176 39.3568 7.33163C39.2145 7.15792 39.0312 6.92217 38.8401 6.66525L39.6425 6.06845C39.8267 6.31616 40.0004 6.53918 40.1305 6.69808C40.1963 6.77841 40.2469 6.83746 40.2803 6.87387C40.2981 6.89326 40.304 6.8985 40.3009 6.89573C40.3005 6.8953 40.287 6.88283 40.2646 6.86742C40.2535 6.85983 40.23 6.84438 40.1971 6.82919C40.1721 6.81763 40.0963 6.78438 39.9919 6.78438V7.78438ZM38.8417 6.6675C38.0522 5.61829 36.8408 4.40643 35.9878 3.77831L36.5808 2.97307C37.5221 3.66621 38.8008 4.95003 39.6408 6.0662L38.8417 6.6675ZM35.9924 3.78165C35.6041 3.50245 34.9733 3.14504 34.3077 2.81882C33.6416 2.49234 32.9779 2.21545 32.5288 2.08502L32.8076 1.12469C33.338 1.2787 34.0613 1.58443 34.7478 1.92087C35.4348 2.25756 36.1223 2.64336 36.5762 2.96973L35.9924 3.78165ZM32.5314 2.08577C31.1649 1.69699 30.212 1.57202 28.3102 1.53589L28.3292 0.536072C30.2907 0.573341 31.3336 0.705292 32.805 1.12394L32.5314 2.08577ZM28.3126 1.53593C27.0302 1.51757 26.2838 1.54656 25.7839 1.63007L25.6191 0.643738C26.2178 0.543747 27.046 0.517693 28.3269 0.536034L28.3126 1.53593ZM31.1249 2.33621C32.4036 2.6095 33.2353 2.88873 34.2356 3.40928L33.774 4.29635C32.8701 3.82597 32.1272 3.57301 30.9159 3.31413L31.1249 2.33621ZM34.2322 3.4075C36.2788 4.4525 37.6744 5.86002 39.432 8.57228L38.5928 9.1161C36.8899 6.48832 35.6123 5.23499 33.7774 4.29813L34.2322 3.4075ZM39.4322 8.57267C39.5861 8.81054 39.7095 8.97643 39.8058 9.08393C39.9155 9.20628 39.9432 9.19917 39.8956 9.1841L39.5939 10.1375C39.3723 10.0674 39.1941 9.89969 39.0612 9.75137C38.9149 9.58819 38.7591 9.37331 38.5925 9.1157L39.4322 8.57267ZM39.9086 9.18842C39.9954 9.21851 40.016 9.21306 40.0088 9.21389C39.9928 9.21575 40.0036 9.22278 40.0565 9.18031C40.1971 9.06746 40.4061 8.8005 40.8115 8.19109L41.6441 8.74492C41.2622 9.31912 40.9677 9.73113 40.6826 9.96007C40.5227 10.0885 40.3401 10.1821 40.1244 10.2072C39.9175 10.2313 39.7322 10.1857 39.5809 10.1332L39.9086 9.18842ZM40.8119 8.19048C41.7833 6.7347 42.4029 5.95611 43.2484 5.16647L43.931 5.89732C43.1653 6.61243 42.5948 7.32024 41.6437 8.74553L40.8119 8.19048ZM43.2488 5.16617C45.4506 3.11353 47.9364 2.20004 51.465 2.08687L51.4971 3.08636C48.1597 3.19339 45.9216 4.04157 43.9307 5.89762L43.2488 5.16617ZM51.4669 2.08681C54.1343 2.01124 55.7458 2.3478 58.0218 3.48837L57.5737 4.38239C55.4555 3.32089 54.0093 3.01518 51.4952 3.08641L51.4669 2.08681ZM58.0207 3.48784C59.5994 4.27423 60.6724 5.06079 61.8402 6.28831L61.1157 6.97756C60.0314 5.83784 59.0538 5.11964 57.5748 4.38293L58.0207 3.48784ZM61.8391 6.28719C64.3155 8.87412 65.6254 12.2064 65.8132 16.2438L64.8143 16.2903C64.6359 12.4552 63.4008 9.36477 61.1167 6.97868L61.8391 6.28719ZM65.8132 16.2434C66.0698 21.6734 63.6012 26.477 58.1716 31.436L57.4972 30.6977C62.7968 25.8574 65.052 21.3205 64.8143 16.2906L65.8132 16.2434ZM58.1708 31.4367C56.673 32.7989 55.0494 34.1298 51.7885 36.6727L51.1736 35.8842C54.4308 33.344 56.0296 32.0323 57.498 30.6969L58.1708 31.4367ZM51.7878 36.6733C46.7819 40.5623 45.1219 41.9752 43.1711 43.9937L42.452 43.2988C44.4561 41.2251 46.165 39.7752 51.1743 35.8836L51.7878 36.6733ZM43.173 43.9918C42.5442 44.6494 41.781 45.5055 41.4865 45.8875L40.6945 45.2769C41.0225 44.8515 41.8157 43.9643 42.4502 43.3007L43.173 43.9918ZM41.486 45.8881C41.2525 46.1901 41.0307 46.448 40.8093 46.6321C40.5863 46.8176 40.3139 46.97 39.9872 46.9676C39.6617 46.9653 39.3906 46.8101 39.1681 46.6226C38.9466 46.436 38.7237 46.1753 38.4879 45.8687L39.2805 45.259C39.507 45.5534 39.6766 45.7434 39.8125 45.8579C39.8782 45.9132 39.9251 45.9415 39.9555 45.9554C39.9833 45.9681 39.9943 45.9677 39.9944 45.9677C39.9954 45.9677 39.9979 45.9676 40.0026 45.9665C40.0076 45.9654 40.0168 45.9628 40.0307 45.9567C40.0597 45.9437 40.1053 45.917 40.1698 45.8633C40.3035 45.7521 40.4708 45.5662 40.695 45.2763L41.486 45.8881ZM38.4863 45.8667C37.695 44.8267 34.9075 42.0652 33.2373 40.6824L33.8751 39.9121C35.5739 41.3186 38.4257 44.1356 39.2821 45.2611L38.4863 45.8667ZM33.2348 40.6803C32.4553 40.0262 30.338 38.343 28.5344 36.9391L29.1487 36.15C30.9521 37.5537 33.0825 39.247 33.8776 39.9142L33.2348 40.6803ZM28.5341 36.9388C22.5521 32.2746 20.519 30.448 18.2479 27.6868L19.0203 27.0516C21.2167 29.7221 23.175 31.4923 29.149 36.1502L28.5341 36.9388ZM18.2471 27.6857C16.8407 25.966 15.4979 23.5904 14.8992 21.733L15.8509 21.4261C16.4057 23.147 17.6812 25.4141 19.0212 27.0526L18.2471 27.6857ZM14.8993 21.7334C13.6884 17.9882 13.9716 13.4716 15.6547 9.87988L16.5602 10.3042C14.9842 13.6674 14.7181 17.9224 15.8508 21.4257L14.8993 21.7334ZM15.6546 9.8801C16.5228 8.02489 18.15 6.02523 19.8156 4.76603L20.4187 5.56373C18.8802 6.72682 17.3582 8.59915 16.5603 10.304L15.6546 9.8801ZM19.8175 4.76463C21.4007 3.57932 23.7624 2.55727 25.761 2.20433L25.9349 3.18909C24.0886 3.51514 21.873 4.47495 20.4168 5.56513L19.8175 4.76463ZM25.7602 2.20448C26.3542 2.09853 27.403 2.07065 28.4192 2.09594C29.4379 2.12129 30.5003 2.20206 31.1254 2.33632L30.9154 3.31403C30.387 3.20054 29.4033 3.12074 28.3943 3.09563C27.3827 3.07046 26.422 3.10222 25.9358 3.18895L25.7602 2.20448ZM29.5151 38.4348C33.9797 41.9151 35.9869 43.7747 38.3799 46.6379L37.6126 47.2792C35.2818 44.4904 33.3341 42.6798 28.9003 39.2235L29.5151 38.4348ZM38.3829 46.6416C38.6758 46.9989 38.9165 47.2052 39.1502 47.3275C39.3774 47.4463 39.6342 47.5045 39.9919 47.5045V48.5045C39.5166 48.5045 39.0913 48.4251 38.6869 48.2136C38.2889 48.0055 37.9483 47.6889 37.6095 47.2755L38.3829 46.6416ZM39.9919 47.5045C40.3647 47.5045 40.6257 47.4429 40.8663 47.3087C41.1189 47.1677 41.3876 46.9254 41.7373 46.496L42.5127 47.1275C42.13 47.5973 41.767 47.9513 41.3536 48.1819C40.9282 48.4193 40.4889 48.5045 39.9919 48.5045V47.5045ZM41.7356 46.4981C43.8033 43.9309 45.605 42.2702 50.2011 38.6475L50.8202 39.4329C46.2433 43.0404 44.5113 44.6461 42.5144 47.1254L41.7356 46.4981ZM50.2012 38.6475C50.8005 38.1752 51.2252 37.853 51.5209 37.6526C51.6671 37.5535 51.7985 37.4726 51.9133 37.4182C51.9709 37.3909 52.039 37.3631 52.113 37.3454C52.1827 37.3288 52.2964 37.3117 52.4249 37.346L52.1667 38.3121C52.2609 38.3373 52.3306 38.3216 52.3448 38.3182C52.3632 38.3138 52.3644 38.311 52.3419 38.3217C52.2965 38.3432 52.215 38.3902 52.082 38.4804C51.8193 38.6584 51.42 38.9602 50.8201 39.4329L50.2012 38.6475ZM52.4194 37.3446C52.5097 37.3676 52.8196 37.4739 53.2451 37.6228C53.6879 37.7776 54.2921 37.9916 55.0019 38.2446C56.4219 38.7508 58.2676 39.4139 60.0972 40.0747C61.9268 40.7355 63.741 41.3941 65.0982 41.891C65.7766 42.1394 66.3416 42.3478 66.7375 42.4959C66.9352 42.5699 67.0925 42.6295 67.2012 42.6719C67.2549 42.6928 67.3003 42.7109 67.3338 42.725C67.3493 42.7315 67.3691 42.74 67.3878 42.749C67.3953 42.7526 67.4149 42.7621 67.4372 42.7756C67.4462 42.7811 67.4735 42.7977 67.5042 42.8238C67.5208 42.8385 67.5601 42.8792 67.5817 42.9062C67.614 42.9552 67.6709 43.1045 67.6813 43.2058H66.6813C66.6916 43.3069 66.7484 43.4559 66.7805 43.5046C66.8019 43.5313 66.8409 43.5717 66.857 43.5861C66.8869 43.6114 66.9128 43.6271 66.9201 43.6315C66.939 43.6429 66.9534 43.6497 66.9539 43.65C66.9588 43.6523 66.9579 43.6517 66.9463 43.6468C66.9253 43.638 66.8899 43.6238 66.8381 43.6036C66.7359 43.5638 66.5837 43.5061 66.3871 43.4325C65.9945 43.2856 65.4321 43.0782 64.7543 42.83C63.3991 42.3338 61.5864 41.6757 59.7575 41.0152C57.9287 40.3548 56.0845 39.6921 54.6662 39.1866C53.957 38.9338 53.355 38.7206 52.9149 38.5667C52.6947 38.4897 52.5161 38.4279 52.3854 38.3835C52.3199 38.3613 52.2676 38.3439 52.2288 38.3313C52.185 38.3172 52.1703 38.3131 52.1722 38.3135L52.4194 37.3446ZM67.6813 43.2058C67.6813 43.3285 67.6371 43.4186 67.6114 43.4625C67.5838 43.5096 67.5541 43.5429 67.5362 43.5614C67.5007 43.5983 67.4661 43.6236 67.4486 43.6358C67.4103 43.6628 67.3697 43.6854 67.3388 43.7018C67.273 43.7368 67.188 43.7764 67.0953 43.8172C66.9069 43.9 66.6528 44.0022 66.3768 44.1054L66.0267 43.1687C66.2908 43.07 66.5265 42.9749 66.6928 42.9018C66.7775 42.8646 66.8361 42.8365 66.8695 42.8188C66.8883 42.8088 66.8863 42.8088 66.8741 42.8174C66.8697 42.8205 66.845 42.8376 66.8162 42.8675C66.8017 42.8826 66.7745 42.9127 66.7486 42.9569C66.7246 42.9979 66.6813 43.0854 66.6813 43.2058H67.6813ZM47.3201 51.371C45.3969 52.1053 43.6312 52.7733 42.3356 53.2578C41.688 53.4999 41.1568 53.6967 40.7818 53.8331C40.5946 53.9011 40.4444 53.9549 40.3374 53.9919C40.2844 54.0103 40.2387 54.0256 40.2033 54.0368C40.186 54.0423 40.1666 54.0482 40.1479 54.0532C40.1388 54.0557 40.125 54.0593 40.109 54.0626C40.1035 54.0637 40.0579 54.0739 40.0011 54.0739V53.0739C39.9683 53.0739 39.943 53.0773 39.9329 53.0787C39.9204 53.0805 39.9108 53.0824 39.9055 53.0835C39.8951 53.0857 39.8884 53.0875 39.8879 53.0876C39.8864 53.088 39.8902 53.087 39.902 53.0833C39.9245 53.0762 39.9601 53.0643 40.0104 53.0469C40.1099 53.0125 40.2543 52.9608 40.44 52.8933C40.8108 52.7584 41.3387 52.5629 41.9853 52.3211C43.2782 51.8376 45.0416 51.1705 46.9634 50.4368L47.3201 51.371ZM40.0011 54.0739C39.9365 54.0739 39.8823 54.0607 39.8771 54.0595C39.8576 54.0551 39.839 54.0501 39.8241 54.0459C39.7934 54.0372 39.757 54.0259 39.7182 54.0133C39.6393 53.9876 39.5326 53.9511 39.4032 53.9055C39.1434 53.8141 38.7809 53.6827 38.3428 53.5212C37.4662 53.1981 36.2809 52.7523 34.9977 52.2608L35.3554 51.327C36.6356 51.8173 37.8168 52.2615 38.6887 52.5829C39.1249 52.7438 39.4821 52.8732 39.735 52.9622C39.8619 53.0068 39.9598 53.0403 40.0271 53.0622C40.0613 53.0733 40.0835 53.0801 40.0959 53.0836C40.1025 53.0854 40.1016 53.085 40.0959 53.0837C40.0931 53.0831 40.0851 53.0813 40.0737 53.0795C40.0661 53.0783 40.0382 53.0739 40.0011 53.0739V54.0739ZM21.5045 47.1138C19.0739 46.187 16.8559 45.3405 15.2409 44.7222C14.4335 44.4131 13.7764 44.1608 13.3187 43.9841C13.0899 43.8957 12.9103 43.826 12.7863 43.7773C12.7245 43.753 12.6752 43.7335 12.6401 43.7193C12.6229 43.7123 12.6069 43.7057 12.5937 43.7001C12.5875 43.6974 12.5786 43.6936 12.5693 43.6893C12.5648 43.6872 12.5567 43.6834 12.547 43.6783C12.5465 43.6781 12.512 43.6611 12.4747 43.633L13.0756 42.8337C13.0527 42.8165 13.0335 42.8052 13.0268 42.8013C13.0179 42.7961 13.0106 42.7923 13.0065 42.7902C12.9983 42.7859 12.9921 42.7831 12.9902 42.7822C12.9859 42.7802 12.9839 42.7794 12.9865 42.7805C12.9909 42.7824 13.0001 42.7862 13.0155 42.7924C13.0455 42.8046 13.0909 42.8226 13.1517 42.8465C13.273 42.8941 13.4506 42.963 13.6789 43.0512C14.1352 43.2274 14.7912 43.4792 15.5985 43.7883C17.2128 44.4063 19.4302 45.2527 21.8607 46.1794L21.5045 47.1138ZM12.5175 43.6618C12.4265 43.6071 12.3081 43.4928 12.2801 43.3071C12.2557 43.1451 12.3162 43.0244 12.3452 42.9757C12.3997 42.8841 12.471 42.8335 12.4784 42.828C12.5169 42.7992 12.5539 42.78 12.5651 42.7742C12.5983 42.7569 12.638 42.7392 12.6747 42.7233C12.7525 42.6897 12.8646 42.6443 13.0034 42.5899C13.2828 42.4801 13.6897 42.3258 14.1923 42.1386C15.1984 41.7638 16.5965 41.2538 18.1448 40.6983L18.4826 41.6395C16.9366 42.1942 15.5426 42.7027 14.5415 43.0757C14.0405 43.2623 13.64 43.4142 13.3688 43.5207C13.2322 43.5743 13.1331 43.6146 13.0714 43.6412C13.0384 43.6555 13.0262 43.6616 13.0265 43.6614C13.0274 43.6609 13.0318 43.6586 13.0384 43.6547C13.0435 43.6518 13.0588 43.6427 13.078 43.6283C13.0819 43.6253 13.151 43.577 13.2045 43.4871C13.233 43.4393 13.2933 43.3193 13.2689 43.1579C13.241 42.9729 13.123 42.8591 13.0328 42.8048L12.5175 43.6618ZM25.6313 38.0106C26.1509 37.8217 26.6345 37.6509 26.9962 37.5269C27.1767 37.4651 27.3288 37.4143 27.4406 37.3785C27.4961 37.3608 27.545 37.3456 27.584 37.3345C27.603 37.3291 27.6242 37.3233 27.6447 37.3184C27.6448 37.3184 27.7082 37.3015 27.7796 37.3015V38.3015C27.823 38.3015 27.8555 38.2954 27.8587 38.2949C27.8683 38.2932 27.8744 38.2917 27.8747 38.2916C27.8757 38.2914 27.8712 38.2925 27.8586 38.2961C27.8345 38.303 27.797 38.3144 27.7453 38.331C27.6428 38.3637 27.498 38.4121 27.3203 38.473C26.9656 38.5945 26.488 38.7632 25.9731 38.9504L25.6313 38.0106ZM27.6972 37.3084C27.7917 37.2926 27.8671 37.3078 27.8951 37.314C27.9311 37.322 27.96 37.3324 27.9776 37.3392C28.013 37.353 28.0436 37.3686 28.0637 37.3794C28.1059 37.4021 28.1517 37.4306 28.1953 37.4589C28.285 37.5172 28.401 37.5982 28.5326 37.6934C28.7975 37.8849 29.1457 38.1479 29.5145 38.4343L28.901 39.224C28.5374 38.9416 28.199 38.6862 27.9467 38.5038C27.8197 38.412 27.7194 38.3423 27.6506 38.2976C27.615 38.2744 27.596 38.2634 27.5898 38.26C27.5856 38.2578 27.5961 38.2638 27.6157 38.2714C27.6255 38.2752 27.6475 38.2834 27.6778 38.2901C27.7001 38.2951 27.771 38.3099 27.862 38.2947L27.6972 37.3084ZM14.6743 45.1242C22.4512 48.0878 28.473 50.3864 32.5575 51.9509C34.5997 52.7332 36.1581 53.3321 37.2096 53.739C37.7351 53.9424 38.135 54.0982 38.4055 54.205C38.5405 54.2582 38.645 54.3 38.7173 54.3296C38.753 54.3443 38.7838 54.3571 38.8075 54.3675C38.8188 54.3724 38.8329 54.3787 38.8468 54.3855C38.8533 54.3886 38.8652 54.3945 38.8791 54.4023C38.8859 54.4061 38.8978 54.413 38.9119 54.4223C38.9207 54.4282 38.9547 54.4505 38.991 54.487L38.2831 55.1933C38.319 55.2293 38.3522 55.2511 38.3602 55.2564C38.3733 55.2651 38.384 55.2712 38.3894 55.2742C38.4003 55.2803 38.4082 55.2842 38.4097 55.2849C38.4136 55.2868 38.4137 55.2867 38.4067 55.2836C38.3939 55.2781 38.3718 55.2687 38.3382 55.255C38.2719 55.2278 38.1723 55.188 38.0383 55.1351C37.771 55.0296 37.3737 54.8748 36.8487 54.6716C35.7989 54.2654 34.2418 53.6669 32.1998 52.8848C28.1161 51.3205 22.095 49.0222 14.3182 46.0586L14.6743 45.1242ZM38.991 54.487C39.1667 54.6631 39.1369 54.8793 39.1348 54.8984C39.1285 54.9562 39.1136 55.0005 39.1075 55.0177C39.0935 55.0576 39.0766 55.0911 39.0677 55.1083C39.0471 55.1481 39.0204 55.1932 38.9934 55.2369C38.9375 55.3277 38.8561 55.452 38.7556 55.6017C38.5534 55.9028 38.2612 56.3249 37.9099 56.8256C37.2065 57.8279 36.2596 59.1539 35.3063 60.4751C34.3529 61.7962 33.3916 63.1142 32.6596 64.1004C32.2939 64.5931 31.9837 65.0053 31.7597 65.2942C31.6483 65.4378 31.5548 65.5554 31.4851 65.6383C31.4514 65.6785 31.4167 65.7184 31.385 65.7508C31.3709 65.7653 31.3454 65.7907 31.3139 65.8155C31.2995 65.8268 31.267 65.8515 31.2221 65.8741C31.2046 65.8829 31.0558 65.9628 30.8638 65.9115L31.122 64.9454C30.9321 64.8947 30.7864 64.9739 30.7729 64.9807C30.7319 65.0013 30.7043 65.0227 30.6956 65.0295C30.6755 65.0453 30.665 65.0568 30.6693 65.0524C30.6745 65.0471 30.6902 65.0299 30.7196 64.9949C30.7763 64.9275 30.8601 64.8225 30.9694 64.6814C31.1869 64.401 31.4921 63.9955 31.8566 63.5044C32.585 62.5231 33.5434 61.209 34.4954 59.8899C35.4473 58.5708 36.3914 57.2486 37.0913 56.2512C37.4416 55.7521 37.7291 55.3366 37.9254 55.0442C38.0242 54.8971 38.0968 54.7858 38.1422 54.7122C38.1659 54.6738 38.1766 54.6545 38.1794 54.649C38.1822 54.6436 38.1735 54.6593 38.164 54.6863C38.1602 54.6971 38.1466 54.7361 38.1407 54.7899C38.1391 54.8051 38.1088 55.0186 38.2831 55.1933L38.991 54.487ZM30.8553 65.9091C30.8143 65.8974 30.6794 65.8472 30.5183 65.787C30.3388 65.7199 30.0858 65.6248 29.775 65.5074C29.1531 65.2727 28.2979 64.9486 27.3319 64.5815C25.4 63.8473 23.0238 62.9411 21.183 62.2343L21.5414 61.3007C23.3808 62.007 25.7559 62.9128 27.6872 63.6467C28.6528 64.0137 29.5072 64.3375 30.1281 64.5719C30.4387 64.6891 30.6903 64.7837 30.8682 64.8502C31.0643 64.9235 31.1395 64.9503 31.1306 64.9478L30.8553 65.9091ZM3.0168 55.3148L2.80624 55.2322L3.17136 54.3012L3.38191 54.3838L3.0168 55.3148ZM2.58993 54.4652L2.81879 54.1624L3.61654 54.7654L3.38767 55.0682L2.58993 54.4652ZM5.21006 50.8508C6.40983 49.1802 7.97587 47.014 8.6906 46.0313L9.49931 46.6195C8.78592 47.6004 7.22107 49.7649 6.02231 51.4341L5.21006 50.8508ZM8.6893 46.0331C9.40728 45.0367 10.0402 44.1483 10.1068 44.0483L10.9394 44.6021C10.8595 44.7223 10.2108 45.6322 9.50061 46.6177L8.6893 46.0331ZM10.1022 44.0552C10.172 43.9465 10.2732 43.8298 10.4145 43.752C10.565 43.669 10.7771 43.6259 10.992 43.7217L10.5851 44.6351C10.7176 44.6941 10.8382 44.6603 10.8972 44.6277C10.9469 44.6004 10.9566 44.5755 10.944 44.5951L10.1022 44.0552ZM10.9645 43.7104C11.0389 43.7383 12.7153 44.3719 14.6755 45.1246L14.3169 46.0582C12.3589 45.3062 10.6847 44.6735 10.6127 44.6464L10.9645 43.7104ZM72.8493 48.1872C73.6927 49.3448 74.6005 50.6131 74.8678 50.9918L74.0507 51.5684C73.787 51.1947 72.8822 49.9306 72.0411 48.776L72.8493 48.1872ZM74.8631 50.9853C75.1396 51.3641 75.8186 52.3113 76.3678 53.0819L75.5534 53.6623C75.004 52.8914 74.3281 51.9485 74.0554 51.5749L74.8631 50.9853ZM76.3659 53.0793C76.8339 53.7271 77.1121 54.1126 77.2377 54.3414C77.2714 54.4029 77.3066 54.4747 77.3306 54.5517C77.3537 54.6258 77.3805 54.7485 77.347 54.89C77.2689 55.2192 76.9592 55.3111 76.9374 55.3191L76.595 54.3795C76.6739 54.3508 76.434 54.406 76.374 54.6592C76.3494 54.7627 76.3723 54.8377 76.3759 54.8492C76.3804 54.8636 76.3806 54.8582 76.3611 54.8227C76.2739 54.6638 76.0485 54.3475 75.5553 53.6649L76.3659 53.0793ZM62.8708 60.6943C62.0395 61.0056 58.6453 62.2985 55.3209 63.5652L54.9649 62.6307C58.2868 61.365 61.6853 60.0704 62.5202 59.7578L62.8708 60.6943ZM55.3209 63.5652C53.6591 64.1984 52.1368 64.7765 51.0219 65.1987C50.4644 65.4098 50.0086 65.582 49.688 65.7026C49.5277 65.7629 49.4009 65.8104 49.3118 65.8436C49.2405 65.8701 49.1611 65.8998 49.1286 65.9091L48.8533 64.9478C48.8368 64.9525 48.8579 64.9455 48.963 64.9064C49.0504 64.8739 49.176 64.8268 49.3359 64.7666C49.6555 64.6464 50.1106 64.4745 50.6677 64.2635C51.7819 63.8416 53.3036 63.2637 54.9649 62.6307L55.3209 63.5652ZM49.1349 65.9073C48.9128 65.9741 48.7401 65.8689 48.7102 65.8511C48.6532 65.8171 48.6085 65.7773 48.5811 65.7516C48.5227 65.6965 48.4576 65.6226 48.3872 65.5375C48.2423 65.3624 48.0243 65.078 47.6993 64.6405C47.0468 63.762 45.9391 62.2334 44.0723 59.647L44.8831 59.0618C46.7514 61.6502 47.8546 63.1725 48.5021 64.0442C48.8271 64.4818 49.0313 64.7473 49.1576 64.8999C49.2228 64.9787 49.2555 65.0131 49.2668 65.0237C49.2743 65.0307 49.2574 65.0131 49.2222 64.9921C49.2143 64.9874 49.0577 64.8863 48.847 64.9496L49.1349 65.9073ZM41.9294 56.6732C41.659 56.2966 41.4057 55.9411 41.2172 55.6711C41.1232 55.5365 41.0435 55.4204 40.9853 55.3325C40.9565 55.2891 40.9305 55.2487 40.9098 55.2147C40.8997 55.198 40.8882 55.1785 40.8776 55.1584C40.8729 55.1496 40.8466 55.1017 40.8294 55.0414L41.7911 54.7673C41.7817 54.7346 41.7712 54.7114 41.7683 54.705C41.7641 54.6956 41.7608 54.6896 41.76 54.6881C41.7585 54.6852 41.7595 54.6872 41.7649 54.6961C41.7754 54.7135 41.7931 54.7411 41.8191 54.7804C41.8704 54.858 41.9446 54.9661 42.0372 55.0987C42.2218 55.3631 42.4719 55.7142 42.7417 56.09L41.9294 56.6732ZM40.8628 55.1276C40.7116 54.8244 40.9036 54.5786 40.943 54.5319C41.0077 54.4551 41.0843 54.4013 41.1374 54.3679C41.2524 54.2953 41.3972 54.2319 41.5454 54.1824L41.8623 55.1309C41.7633 55.1639 41.6976 55.1968 41.6707 55.2138C41.6528 55.225 41.6757 55.2143 41.7077 55.1762C41.7239 55.157 41.7625 55.1075 41.7868 55.029C41.8142 54.9405 41.8227 54.8116 41.7576 54.6812L40.8628 55.1276ZM41.5454 54.1824C41.5453 54.1824 41.5468 54.1819 41.5505 54.1806C41.554 54.1794 41.5586 54.1778 41.5646 54.1756C41.5764 54.1714 41.592 54.1657 41.6116 54.1585C41.6507 54.1441 41.7034 54.1246 41.7695 54.0999C41.9016 54.0506 42.0849 53.9817 42.3147 53.895C42.7742 53.7216 43.4178 53.4777 44.2054 53.1786C45.7804 52.5805 47.9301 51.762 50.3313 50.8462C55.1339 49.0146 60.9421 46.7943 65.1711 45.1705L65.5296 46.104C57.0817 49.3479 42.2882 54.9886 41.8623 55.1309L41.5454 54.1824ZM65.1705 45.1707C66.2422 44.7576 67.2203 44.3834 67.9342 44.1124C68.291 43.9769 68.5824 43.867 68.7867 43.7908C68.8887 43.7528 68.9702 43.7227 69.0277 43.7019C69.0561 43.6916 69.0809 43.6828 69.1002 43.6762C69.1094 43.6731 69.121 43.6692 69.1326 43.6656C69.1379 43.664 69.1482 43.6609 69.1606 43.6577C69.1666 43.6562 69.1779 43.6534 69.192 43.6507C69.1986 43.6494 69.2372 43.6417 69.2868 43.6417V44.6417C69.336 44.6417 69.374 44.634 69.3798 44.6329C69.3931 44.6304 69.4033 44.6278 69.408 44.6266C69.4178 44.6241 69.4247 44.622 69.4258 44.6217C69.429 44.6207 69.4289 44.6207 69.4231 44.6226C69.4125 44.6263 69.3944 44.6326 69.3677 44.6423C69.3149 44.6614 69.2372 44.6901 69.1361 44.7277C68.9345 44.8029 68.6452 44.9121 68.2891 45.0473C67.5771 45.3176 66.6007 45.6912 65.5302 46.1038L65.1705 45.1707ZM69.1284 43.6675C69.3194 43.6037 69.473 43.6759 69.4997 43.6882C69.5494 43.7111 69.5848 43.7373 69.6 43.7489C69.6333 43.7744 69.6589 43.8001 69.6711 43.8127C69.6995 43.8419 69.7285 43.8759 69.7538 43.9065C69.8069 43.9708 69.8754 44.0593 69.9527 44.1618C70.1086 44.3686 70.3151 44.6524 70.5358 44.9611L69.7223 45.5427C69.5036 45.2367 69.3027 44.9608 69.1542 44.7638C69.0793 44.6645 69.0214 44.5901 68.9826 44.5431C68.962 44.5182 68.9538 44.5095 68.9547 44.5104C68.9555 44.5112 68.9586 44.5144 68.9636 44.519C68.968 44.5231 68.9778 44.532 68.992 44.5429C69.0028 44.5512 69.0345 44.5749 69.0812 44.5964C69.1048 44.6073 69.2561 44.6791 69.4453 44.6159L69.1284 43.6675ZM39.5007 88.4706C39.3884 88.5456 39.2788 88.5523 39.2584 88.5538C39.2198 88.5566 39.1891 88.5543 39.1746 88.553C39.144 88.5502 39.1195 88.5451 39.1096 88.543C39.0864 88.5381 39.0653 88.5322 39.0522 88.5284C39.0231 88.5199 38.9878 88.5086 38.9502 88.496C38.8733 88.4704 38.7652 88.4326 38.6314 88.3847C38.3627 88.2887 37.9792 88.1482 37.51 87.9743C36.571 87.6261 35.2834 87.1416 33.8727 86.6045L34.2285 85.6699C35.6374 86.2063 36.9222 86.6898 37.8577 87.0366C38.3257 87.2102 38.7048 87.349 38.968 87.4431C39.1001 87.4903 39.2001 87.5252 39.2667 87.5474C39.3009 87.5588 39.321 87.5651 39.3305 87.5679C39.3366 87.5696 39.3304 87.5676 39.3178 87.565C39.3132 87.564 39.2929 87.5596 39.2654 87.5571C39.2524 87.5559 39.223 87.5537 39.1854 87.5564C39.1659 87.5579 39.057 87.5643 38.9452 87.6391L39.5007 88.4706ZM33.872 86.6042L28.7362 84.6407L29.0934 83.7066L34.2291 85.6702L33.872 86.6042ZM18.9434 80.9073L18.2843 80.6596L18.6361 79.7235L19.2952 79.9713L18.9434 80.9073ZM14.2999 79.1357L10.9767 77.8695L11.3328 76.935L14.6559 78.2012L14.2999 79.1357ZM10.6548 77.4023V68.4655H11.6548V77.4023H10.6548ZM10.6548 68.4655C10.6548 65.923 10.6639 63.6917 10.6788 62.0989C10.6863 61.3028 10.6951 60.6645 10.7051 60.226C10.71 60.0075 10.7153 59.835 10.721 59.7163C10.7238 59.6585 10.727 59.6056 10.7312 59.5643C10.7329 59.5473 10.7364 59.514 10.7439 59.4787C10.7459 59.4693 10.7567 59.4157 10.7863 59.3556C10.7972 59.3334 10.8422 59.2418 10.945 59.1681C11.0046 59.1255 11.0939 59.0818 11.2081 59.0753C11.3244 59.0686 11.4231 59.103 11.4948 59.1461L10.9795 60.0031C11.0508 60.046 11.1492 60.0803 11.2651 60.0736C11.379 60.0671 11.4679 60.0236 11.5272 59.9812C11.6293 59.9081 11.6736 59.8174 11.6838 59.7967C11.7119 59.7394 11.7212 59.6906 11.7218 59.6878C11.7265 59.6658 11.7273 59.653 11.7262 59.6638C11.7248 59.6782 11.7225 59.7098 11.7199 59.7642C11.7148 59.8698 11.7097 60.0321 11.7048 60.2487C11.695 60.6805 11.6862 61.3135 11.6788 62.1082C11.6639 63.6969 11.6548 65.9249 11.6548 68.4655H10.6548ZM11.4948 59.1461C11.4814 59.1381 11.4707 59.1325 11.4666 59.1304C11.4614 59.1277 11.4574 59.1258 11.4552 59.1248C11.4529 59.1237 11.4512 59.1229 11.4504 59.1225C11.4495 59.1221 11.449 59.1219 11.449 59.1219C11.449 59.1219 11.4492 59.122 11.4498 59.1223C11.4504 59.1225 11.4512 59.1229 11.4523 59.1233C11.4544 59.1242 11.4572 59.1254 11.4609 59.1269C11.4758 59.1332 11.4989 59.1425 11.5307 59.1553C11.5938 59.1806 11.6855 59.2167 11.8033 59.2628C12.0385 59.3548 12.374 59.485 12.7857 59.6437C13.6087 59.9611 14.734 60.392 15.9646 60.8597L15.6094 61.7945C14.3774 61.3263 13.2506 60.8948 12.4259 60.5767C12.0136 60.4178 11.6763 60.287 11.4389 60.194C11.3203 60.1477 11.2257 60.1104 11.1589 60.0836C11.1257 60.0703 11.0978 60.059 11.0766 60.0501C11.0663 60.0458 11.0554 60.0413 11.0455 60.0369C11.0406 60.0347 11.0338 60.0317 11.0263 60.0281C11.0233 60.0267 11.0029 60.0172 10.9795 60.0031L11.4948 59.1461ZM15.9662 60.8603C18.4282 61.8051 22.9227 63.5207 25.953 64.6769L25.5965 65.6112C22.5665 64.4551 18.071 62.7392 15.6079 61.7939L15.9662 60.8603ZM25.953 64.6769C27.4672 65.2546 28.8575 65.7794 29.8769 66.1597C30.3867 66.3499 30.8027 66.5035 31.0947 66.6094C31.241 66.6625 31.3543 66.7029 31.432 66.7297C31.4713 66.7433 31.4984 66.7523 31.5148 66.7575C31.5236 66.7602 31.525 66.7605 31.5217 66.7596C31.5204 66.7593 31.513 66.7573 31.5021 66.755C31.5019 66.755 31.4597 66.7452 31.4049 66.7452V67.7452C31.3481 67.7452 31.3027 67.7349 31.298 67.734C31.2827 67.7308 31.2697 67.7274 31.2616 67.7252C31.2449 67.7207 31.228 67.7156 31.2139 67.7111C31.1847 67.7019 31.1477 67.6895 31.1057 67.6749C31.0206 67.6456 30.9015 67.6031 30.7538 67.5495C30.4576 67.4421 30.0382 67.2872 29.5273 67.0966C28.5052 66.7153 27.1125 66.1896 25.5965 65.6112L25.953 64.6769ZM31.3901 66.7454C31.3032 66.748 31.3352 66.8237 31.6572 66.4513C31.9523 66.11 32.401 65.508 33.16 64.4568L33.9707 65.0422C33.2192 66.083 32.7433 66.7242 32.4136 67.1054C32.1108 67.4556 31.8178 67.7332 31.4196 67.745L31.3901 66.7454ZM33.159 64.4582C34.0475 63.2189 35.6865 60.9428 36.7946 59.4101L37.605 59.996C36.4976 61.5278 34.8593 63.8028 33.9717 65.0408L33.159 64.4582ZM36.7939 59.411L38.808 56.6125L39.6196 57.1966L37.6056 59.9951L36.7939 59.411ZM39.7138 56.9037L39.7413 72.4559L38.7413 72.4576L38.7138 56.9055L39.7138 56.9037ZM39.7413 72.4562C39.7458 76.7322 39.7458 80.6252 39.7424 83.4529C39.7407 84.8666 39.7381 86.0144 39.7348 86.8106C39.7332 87.2086 39.7313 87.5195 39.7293 87.7321C39.7283 87.8382 39.7273 87.9212 39.7262 87.9788C39.7256 88.0071 39.725 88.032 39.7243 88.0512C39.7239 88.0601 39.7234 88.0725 39.7224 88.0852C39.7221 88.0905 39.7211 88.1034 39.719 88.1189C39.7181 88.1259 39.7158 88.1423 39.7113 88.1627C39.7088 88.173 39.702 88.198 39.6974 88.2127C39.6892 88.2354 39.6612 88.2956 39.6393 88.3317L38.8066 87.7779C38.7848 87.814 38.7568 87.8739 38.7487 87.8965C38.7441 87.9109 38.7374 87.9357 38.7351 87.9457C38.7307 87.9654 38.7285 87.9809 38.7277 87.9869C38.726 88.0003 38.7253 88.0102 38.7252 88.0117C38.7248 88.0167 38.7248 88.0181 38.725 88.0126C38.7254 88.0032 38.7258 87.986 38.7264 87.9593C38.7274 87.9069 38.7284 87.828 38.7294 87.7227C38.7314 87.5128 38.7332 87.204 38.7348 86.8065C38.7381 86.0117 38.7407 84.8651 38.7424 83.4516C38.7458 80.625 38.7458 76.7327 38.7413 72.4573L39.7413 72.4562ZM44.8838 61.7602C46.2019 63.595 47.1165 64.8476 47.7246 65.6508C48.0292 66.0531 48.2528 66.3371 48.4095 66.5233C48.4884 66.6171 48.5449 66.6794 48.5827 66.7175C48.5918 66.7266 48.5988 66.7334 48.604 66.7382C48.6094 66.7432 48.6118 66.7452 48.6117 66.7451C48.6115 66.7449 48.6103 66.7439 48.6081 66.7423C48.6059 66.7407 48.6023 66.738 48.5973 66.7347C48.5888 66.7291 48.5685 66.7161 48.5383 66.7032L48.1437 67.622C48.067 67.5891 48.0088 67.5439 47.9781 67.5188C47.9414 67.4887 47.9059 67.4552 47.8731 67.4221C47.8073 67.3559 47.7308 67.2699 47.6445 67.1673C47.4708 66.961 47.2349 66.6606 46.9273 66.2544C46.311 65.4404 45.3901 64.179 44.0716 62.3437L44.8838 61.7602ZM48.5235 66.6971C48.5936 66.7246 48.6043 66.7205 48.6047 66.7205C48.6204 66.7198 48.6699 66.7135 48.812 66.659L49.1699 67.5928C49.0008 67.6576 48.8306 67.711 48.6518 67.7194C48.4576 67.7285 48.2989 67.6832 48.1584 67.6281L48.5235 66.6971ZM56.3382 63.7868C60.2652 62.2913 64.0561 60.8504 64.7618 60.584L65.115 61.5196C64.4109 61.7854 60.6217 63.2256 56.694 64.7213L56.3382 63.7868ZM67.2673 59.6309C67.604 59.5015 67.9209 59.3832 68.1608 59.2968C68.2803 59.2538 68.3833 59.2178 68.461 59.192C68.4993 59.1793 68.5355 59.1678 68.5663 59.1589C68.5813 59.1545 68.6 59.1494 68.6195 59.1449C68.6236 59.1439 68.6799 59.1297 68.7467 59.1297V60.1297C68.7856 60.1297 68.8149 60.1248 68.8221 60.1236C68.8336 60.1217 68.8416 60.1199 68.8444 60.1193C68.8499 60.118 68.8506 60.1176 68.8439 60.1196C68.8313 60.1232 68.8091 60.1301 68.7756 60.1413C68.7096 60.1631 68.6158 60.1959 68.4996 60.2377C68.268 60.3211 67.9579 60.4368 67.6262 60.5643L67.2673 59.6309ZM68.7467 59.1297C68.9761 59.1297 69.1052 59.2758 69.1417 59.3223C69.1856 59.3785 69.2069 59.4309 69.2146 59.4504C69.232 59.4949 69.2394 59.533 69.2417 59.5449C69.2479 59.5764 69.2511 59.6065 69.2529 59.6247C69.2569 59.6659 69.2601 59.7186 69.2628 59.7766C69.2685 59.8955 69.2738 60.0669 69.2788 60.2836C69.2887 60.7183 69.2976 61.3498 69.3051 62.1401C69.32 63.7215 69.3291 65.9459 69.3291 68.5205H68.3291C68.3291 65.9478 68.32 63.7268 68.3051 62.1495C68.2977 61.3606 68.2888 60.7344 68.279 60.3064C68.2741 60.0918 68.2691 59.9305 68.264 59.8245C68.2614 59.7701 68.2591 59.7373 68.2575 59.7212C68.2565 59.7107 68.2569 59.7192 68.2602 59.7362C68.2611 59.7409 68.2672 59.7735 68.2831 59.8143C68.2901 59.8321 68.3107 59.8831 68.3539 59.9383C68.3896 59.984 68.5181 60.1297 68.7467 60.1297V59.1297ZM69.3291 68.5205V77.4114H68.3291V68.5205H69.3291ZM69.0031 77.8802L68.756 77.9719L68.4079 77.0345L68.6551 76.9427L69.0031 77.8802ZM68.7458 77.9756C68.746 77.9755 68.7435 77.9764 68.7365 77.9789C68.7302 77.9813 68.7218 77.9844 68.7111 77.9883C68.6899 77.9962 68.6612 78.0069 68.6254 78.0203C68.5537 78.0472 68.4548 78.0846 68.3314 78.1312C68.0848 78.2246 67.742 78.3547 67.3275 78.5123C66.4987 78.8275 65.3843 79.2521 64.1828 79.7103C61.7798 80.6266 59.029 81.6771 57.5187 82.2551L57.1613 81.3211C60.174 80.1682 68.1701 77.1168 68.4181 77.0308L68.7458 77.9756ZM57.519 82.2549C53.1517 83.9296 49.0337 85.4989 46.0027 86.6461C44.4874 87.2197 43.2431 87.688 42.375 88.0113C41.9412 88.1729 41.6001 88.2987 41.3658 88.3834C41.249 88.4257 41.1563 88.4586 41.0911 88.4809C41.0593 88.4917 41.0293 88.5016 41.0047 88.5091C40.9938 88.5124 40.9753 88.5178 40.9549 88.5226C40.9465 88.5245 40.9238 88.5297 40.8951 88.5331C40.882 88.5347 40.851 88.538 40.8118 88.5361C40.8012 88.5356 40.6645 88.5344 40.5337 88.4362L41.1346 87.6368C41.0042 87.5387 40.8679 87.5377 40.8581 87.5372C40.8196 87.5354 40.7897 87.5386 40.7778 87.54C40.7515 87.5431 40.7322 87.5477 40.7281 87.5486C40.7163 87.5514 40.7101 87.5534 40.7152 87.5519C40.7226 87.5497 40.7392 87.5443 40.7682 87.5344C40.8245 87.5152 40.9103 87.4848 41.0256 87.4431C41.2554 87.36 41.5929 87.2355 42.026 87.0742C42.8916 86.7518 44.1339 86.2842 45.6488 85.7108C48.6781 84.5642 52.7948 82.9955 57.161 81.3212L57.519 82.2549ZM40.4542 88.3615C40.4108 88.3025 40.3646 88.2084 40.3545 88.1781C40.3498 88.1612 40.3435 88.1337 40.3414 88.1227C40.3378 88.1026 40.3361 88.086 40.3354 88.0792C40.3338 88.0632 40.3329 88.0478 40.3323 88.0376C40.3311 88.0152 40.3302 87.9869 40.3293 87.9556C40.3276 87.8917 40.3259 87.8004 40.3244 87.6848C40.3212 87.4531 40.3182 87.1163 40.3154 86.6903C40.3097 85.838 40.3048 84.6245 40.3006 83.1708C40.2921 80.2633 40.2867 76.3929 40.285 72.5247C40.2832 68.6564 40.2852 64.79 40.2917 61.8904C40.2949 60.4407 40.2992 59.2321 40.3048 58.3857C40.3075 57.9626 40.3106 57.6289 40.314 57.4003C40.3157 57.2864 40.3175 57.1963 40.3195 57.1335C40.3205 57.103 40.3216 57.0741 40.3231 57.0507C40.3238 57.0407 40.3251 57.0218 40.3278 57.0012C40.3287 56.9941 40.3322 56.9671 40.3408 56.9345C40.3465 56.9146 40.3665 56.8607 40.3827 56.8271C40.4268 56.758 40.6402 56.5959 40.825 56.5606V57.5606C41.0096 57.5252 41.2227 57.3634 41.2666 57.2947C41.2826 57.2616 41.3023 57.2084 41.3077 57.1895C41.3158 57.1587 41.3188 57.1346 41.3193 57.1312C41.321 57.118 41.3213 57.1103 41.321 57.1152C41.3206 57.1215 41.3199 57.137 41.319 57.165C41.3173 57.2192 41.3156 57.3026 41.3139 57.4152C41.3106 57.6394 41.3075 57.9698 41.3047 58.3922C41.2992 59.2365 41.2949 60.4433 41.2917 61.8926C41.2852 64.791 41.2832 68.6565 41.285 72.5242C41.2867 76.3919 41.2921 80.2615 41.3005 83.1679C41.3048 84.6213 41.3097 85.8333 41.3154 86.6837C41.3182 87.1091 41.3212 87.4431 41.3243 87.6712C41.3258 87.7856 41.3274 87.8715 41.3289 87.9284C41.3297 87.9574 41.3304 87.9754 41.3309 87.9846C41.3312 87.9902 41.3312 87.987 41.3304 87.9795C41.3301 87.9769 41.3288 87.9636 41.3257 87.9459C41.3238 87.9361 41.3176 87.9096 41.3132 87.8934C41.3033 87.8638 41.2573 87.7702 41.2142 87.7115L40.4542 88.3615ZM40.825 56.5606C40.923 56.5606 40.9958 56.5894 41.0257 56.6025C41.0614 56.6181 41.088 56.6348 41.1027 56.6445C41.132 56.664 41.1529 56.6824 41.1615 56.6901C41.1806 56.7072 41.1949 56.7227 41.2005 56.7289C41.2141 56.7436 41.2267 56.7587 41.2354 56.7693C41.2543 56.7924 41.2781 56.8227 41.3046 56.8571C41.3587 56.9272 41.4349 57.0283 41.53 57.1556C41.7206 57.411 41.992 57.7792 42.3236 58.2321C42.987 59.1382 43.8941 60.3871 44.8833 61.7596L44.0721 62.3443C43.084 60.9734 42.1784 59.7265 41.5167 58.8228C41.1858 58.3708 40.9164 58.0055 40.7285 57.7537C40.6343 57.6274 40.5619 57.5315 40.5128 57.4679C40.4879 57.4355 40.4715 57.4148 40.4623 57.4037C40.4569 57.3971 40.4584 57.3992 40.4641 57.4053C40.4657 57.4071 40.4768 57.4193 40.4935 57.4343C40.5008 57.4409 40.5208 57.4585 40.5493 57.4774C40.5635 57.4869 40.5897 57.5033 40.6251 57.5188C40.6548 57.5317 40.7273 57.5606 40.825 57.5606V56.5606ZM27.1812 84.0172L23.8672 82.7602L24.2218 81.8252L27.5358 83.0822L27.1812 84.0172ZM23.8676 82.7604L20.5445 81.5034L20.8983 80.568L24.2214 81.8251L23.8676 82.7604ZM28.7287 84.6378L27.1724 84.0138L27.5446 83.0856L29.1009 83.7096L28.7287 84.6378ZM20.5469 81.5043L18.9449 80.9079L19.2937 79.9707L20.8958 80.5671L20.5469 81.5043ZM74.9652 48.4182C77.1077 51.3839 78.2254 52.9267 78.804 53.7512C79.0902 54.1591 79.2571 54.4089 79.3508 54.5735C79.448 54.7441 79.5158 54.9052 79.4967 55.1087L78.5011 55.0153C78.4913 55.1196 78.545 55.1794 78.4818 55.0683C78.415 54.951 78.2752 54.7386 77.9854 54.3256C77.412 53.5085 76.301 51.9748 74.1546 49.0038L74.9652 48.4182ZM79.4967 55.1086C79.4952 55.1248 79.4934 55.1388 79.4924 55.1467C79.491 55.1568 79.4908 55.1582 79.4904 55.1615C79.4902 55.1636 79.4908 55.1588 79.4908 55.1521H78.4908C78.4908 55.107 78.4942 55.0702 78.4974 55.0433C78.4988 55.0321 78.5004 55.0198 78.5008 55.0166C78.5016 55.0111 78.5014 55.0122 78.5011 55.0153L79.4967 55.1086ZM67.8075 80.0167L67.6473 80.0776L67.292 79.1428L67.4522 79.0819L67.8075 80.0167ZM67.6473 80.0776C66.3474 80.5717 64.7874 81.1648 64.1132 81.428L63.7495 80.4965C64.429 80.2312 65.9949 79.6359 67.292 79.1428L67.6473 80.0776ZM64.108 81.4301C63.7345 81.5711 62.6117 81.9995 61.13 82.5648L60.7735 81.6306C62.2537 81.0658 63.3791 80.6363 63.7548 80.4945L64.108 81.4301ZM61.13 82.5648C59.8239 83.0632 58.2402 83.6675 56.6483 84.2739L56.2923 83.3394C57.8839 82.7332 59.4674 82.1289 60.7735 81.6306L61.13 82.5648ZM56.6483 84.2739C54.6771 85.0248 52.6225 85.8097 51.0377 86.4151L50.6808 85.4809C52.2656 84.8755 54.3206 84.0905 56.2923 83.3394L56.6483 84.2739ZM51.0377 86.4151C49.8925 86.8526 48.9921 87.1965 48.5461 87.3661L48.1908 86.4314C48.6358 86.2622 49.5352 85.9186 50.6808 85.4809L51.0377 86.4151ZM25.9731 38.9504C25.4359 39.1458 24.2723 39.5627 22.8486 40.0728L22.5113 39.1314C23.9365 38.6207 25.097 38.2049 25.6313 38.0106L25.9731 38.9504ZM22.8486 40.0728C21.5227 40.5479 19.9699 41.1043 18.483 41.6394L18.1444 40.6984C19.632 40.1631 21.1855 39.6065 22.5113 39.1314L22.8486 40.0728ZM21.8607 46.1794C22.998 46.613 24.2014 47.0717 25.4106 47.5326L25.0544 48.467C23.8452 48.0061 22.6418 47.5474 21.5045 47.1138L21.8607 46.1794ZM25.4106 47.5326C29.3697 49.0417 33.3913 50.5747 35.3554 51.327L34.9977 52.2608C33.0346 51.509 29.014 49.9763 25.0544 48.467L25.4106 47.5326ZM46.9636 50.4367C52.8128 48.2066 56.9814 46.6161 59.9091 45.499L60.2656 46.4333C57.3378 47.5504 53.1692 49.141 47.3199 51.3711L46.9636 50.4367ZM59.9091 45.499C63.7617 44.0291 65.4678 43.3781 66.0263 43.1688L66.3772 44.1053C65.8224 44.3131 64.1209 44.9623 60.2656 46.4333L59.9091 45.499ZM6.0226 51.4337C5.06088 52.7758 4.16497 54.0099 3.79298 54.5223L2.98373 53.9348C3.35561 53.4226 4.24997 52.1906 5.20977 50.8512L6.0226 51.4337ZM3.79298 54.5223C3.70377 54.6452 3.64558 54.7254 3.62331 54.7563L2.81202 54.1716C2.83562 54.1389 2.89537 54.0566 2.98373 53.9348L3.79298 54.5223ZM3.37919 54.3828C3.41749 54.3975 3.86312 54.5671 4.61031 54.8513L4.25477 55.7859C3.51006 55.5027 3.06056 55.3317 3.01953 55.3158L3.37919 54.3828ZM4.61031 54.8513C6.10219 55.4188 8.78765 56.4403 11.7905 57.5843L11.4345 58.5187C8.4319 57.3749 5.74664 56.3535 4.25477 55.7859L4.61031 54.8513ZM11.7905 57.5843C13.7898 58.3459 15.7674 59.1002 17.4231 59.7318L17.0667 60.6661C15.411 60.0345 13.4335 59.2803 11.4345 58.5187L11.7905 57.5843ZM17.4231 59.7318C19.4984 60.5234 21.0663 61.1215 21.5387 61.2997L21.1857 62.2353C20.7111 62.0563 19.1404 61.4572 17.0667 60.6661L17.4231 59.7318ZM70.5482 46.6941C70.2058 46.2172 69.9095 45.8045 69.7223 45.5427L70.5358 44.9611C70.7222 45.2219 71.0178 45.6335 71.3605 46.1108L70.5482 46.6941ZM42.7417 56.09C42.9887 56.4341 43.3261 56.9015 43.6804 57.3924L42.8696 57.9776C42.5155 57.4872 42.1773 57.0185 41.9294 56.6732L42.7417 56.09ZM43.6804 57.3924C44.0991 57.9724 44.5412 58.585 44.884 59.063L44.0714 59.6458C43.7297 59.1693 43.2885 58.5581 42.8696 57.9776L43.6804 57.3924ZM62.5168 59.7591C62.9087 59.6092 64.4567 59.0179 66.3927 58.2784L66.7495 59.2126C64.8133 59.9521 63.2657 60.5433 62.8741 60.693L62.5168 59.7591ZM66.3927 58.2784C70.3854 56.7533 76.0263 54.5987 76.5864 54.3828L76.9461 55.3158C76.3841 55.5325 70.7406 57.6881 66.7495 59.2126L66.3927 58.2784ZM72.0385 48.7724C71.5599 48.103 71.0116 47.3394 70.5482 46.6941L71.3605 46.1108C71.8238 46.756 72.3726 47.5204 72.852 48.1908L72.0385 48.7724ZM67.6241 60.5651C67.3413 60.6723 66.9801 60.81 66.6034 60.9537L66.2472 60.0193C66.6236 59.8758 66.9857 59.7377 67.2695 59.6301L67.6241 60.5651ZM66.6034 60.9537C66.0797 61.1533 65.5261 61.3644 65.115 61.5196L64.7618 60.584C65.171 60.4296 65.7229 60.2192 66.2472 60.0193L66.6034 60.9537ZM56.695 64.7209C54.0746 65.7249 51.6947 66.6309 50.3382 67.1473L49.9824 66.2127C51.3389 65.6963 53.7179 64.7907 56.3372 63.7871L56.695 64.7209ZM50.3382 67.1473C49.6586 67.406 49.2405 67.5651 49.1735 67.5914L48.8084 66.6604C48.8816 66.6317 49.308 66.4694 49.9824 66.2127L50.3382 67.1473ZM14.6566 78.2015C15.1528 78.3914 15.6469 78.5807 16.1107 78.7583L15.7531 79.6921C15.2893 79.5145 14.7952 79.3253 14.2992 79.1354L14.6566 78.2015ZM16.1107 78.7583C17.3513 79.2334 18.3715 79.6241 18.6361 79.7235L18.2843 80.6596C18.0159 80.5587 16.9909 80.1662 15.7531 79.6921L16.1107 78.7583Z" fill="#E84438" mask="url(#path-1-outside-1_2658_141)"/>
</svg>
