<svg width="25" height="25" viewBox="0 0 25 25" fill="none" xmlns="http://www.w3.org/2000/svg">
<g clip-path="url(#clip0_1786_1366)">
<path fill-rule="evenodd" clip-rule="evenodd" d="M12.3934 0.288086C5.90143 0.288086 0.638672 5.55084 0.638672 12.0427C0.638672 18.5347 5.90143 23.7975 12.3934 23.7975C18.8853 23.7975 24.1481 18.5347 24.1481 12.0427C24.1481 5.55084 18.8853 0.288086 12.3934 0.288086ZM9.80899 5.81151C10.4777 5.78107 10.6913 5.77363 12.394 5.77363H12.392C14.0952 5.77363 14.308 5.78107 14.9768 5.81151C15.6442 5.84207 16.1 5.94773 16.4997 6.10277C16.9124 6.26276 17.2611 6.47696 17.6099 6.82569C17.9586 7.17415 18.1728 7.52392 18.3335 7.93625C18.4876 8.33488 18.5933 8.79042 18.6247 9.45786C18.6547 10.1266 18.6626 10.3402 18.6626 12.0428C18.6626 13.7455 18.6547 13.9586 18.6247 14.6274C18.5933 15.2945 18.4876 15.7502 18.3335 16.149C18.1728 16.5611 17.9586 16.9109 17.6099 17.2594C17.2615 17.6081 16.9123 17.8229 16.5001 17.9829C16.1012 18.138 15.6451 18.2436 14.9776 18.2742C14.309 18.3046 14.096 18.3121 12.3932 18.3121C10.6907 18.3121 10.4771 18.3046 9.80847 18.2742C9.14112 18.2436 8.6855 18.138 8.28658 17.9829C7.87451 17.8229 7.52474 17.6081 7.1764 17.2594C6.8278 16.9109 6.61361 16.5611 6.45335 16.1488C6.29845 15.7502 6.19279 15.2946 6.16209 14.6272C6.13179 13.9585 6.12421 13.7455 6.12421 12.0428C6.12421 10.3402 6.13205 10.1264 6.16196 9.45769C6.192 8.7906 6.2978 8.33488 6.45322 7.93612C6.61387 7.52392 6.82807 7.17415 7.1768 6.82569C7.52526 6.47709 7.87503 6.26289 8.28736 6.10277C8.68601 5.94773 9.14155 5.84207 9.80899 5.81151Z" fill="#D6D6D6"/>
<path fill-rule="evenodd" clip-rule="evenodd" d="M11.8315 6.9039C11.9407 6.90374 12.0581 6.90379 12.1849 6.90384L12.3939 6.9039C14.0678 6.9039 14.2661 6.90992 14.9272 6.93995C15.5384 6.96791 15.8702 7.07004 16.0911 7.15586C16.3837 7.26948 16.5923 7.40531 16.8116 7.62474C17.031 7.84416 17.1668 8.05313 17.2808 8.3457C17.3666 8.56643 17.4688 8.89818 17.4966 9.50939C17.5266 10.1703 17.5332 10.3688 17.5332 12.0419C17.5332 13.715 17.5266 13.9136 17.4966 14.5745C17.4687 15.1857 17.3666 15.5174 17.2808 15.7381C17.1671 16.0308 17.031 16.239 16.8116 16.4584C16.5922 16.6778 16.3838 16.8136 16.0911 16.9273C15.8704 17.0134 15.5384 17.1153 14.9272 17.1432C14.2663 17.1733 14.0678 17.1799 12.3939 17.1799C10.7199 17.1799 10.5214 17.1733 9.86056 17.1432C9.24935 17.115 8.91757 17.0129 8.69644 16.9271C8.40389 16.8135 8.19491 16.6777 7.97549 16.4582C7.75606 16.2388 7.62023 16.0303 7.50635 15.7376C7.42053 15.5169 7.31827 15.1852 7.29044 14.5739C7.26041 13.9131 7.25439 13.7145 7.25439 12.0404C7.25439 10.3662 7.26041 10.1687 7.29044 9.50783C7.3184 8.89663 7.42053 8.56487 7.50635 8.34388C7.61997 8.0513 7.75606 7.84234 7.97549 7.62291C8.19491 7.40349 8.40389 7.26765 8.69644 7.15376C8.9174 7.06756 9.24935 6.96569 9.86056 6.93761C10.4389 6.91149 10.6631 6.90365 11.8315 6.90234V6.9039ZM15.7404 7.94586C15.325 7.94586 14.9881 8.28245 14.9881 8.69792C14.9881 9.11327 15.325 9.45022 15.7404 9.45022C16.1557 9.45022 16.4927 9.11327 16.4927 8.69792C16.4927 8.28257 16.1557 7.94586 15.7404 7.94586ZM9.17501 12.0436C9.17501 10.2657 10.6165 8.8241 12.3944 8.82401C14.1724 8.82401 15.6135 10.2656 15.6135 12.0436C15.6135 13.8216 14.1726 15.2624 12.3946 15.2624C10.6166 15.2624 9.17501 13.8216 9.17501 12.0436Z" fill="#D6D6D6"/>
<path d="M12.3939 9.95508C13.548 9.95508 14.4836 10.8906 14.4836 12.0448C14.4836 13.1989 13.548 14.1345 12.3939 14.1345C11.2397 14.1345 10.3042 13.1989 10.3042 12.0448C10.3042 10.8906 11.2397 9.95508 12.3939 9.95508Z" fill="#D6D6D6"/>
</g>
<defs>
<clipPath id="clip0_1786_1366">
<rect width="24.1481" height="24.1481" fill="white"/>
</clipPath>
</defs>
</svg>
