<svg width="10" height="12" viewBox="0 0 10 12" fill="none" xmlns="http://www.w3.org/2000/svg">
<path d="M1.41065 12C1.11287 12 0.858873 11.8951 0.648651 11.6853C0.438873 11.4756 0.333984 11.2216 0.333984 10.9233V5.07667C0.333984 4.77889 0.438873 4.52489 0.648651 4.31467C0.858429 4.10489 1.11243 4 1.41065 4H2.33398V2.66667C2.33398 1.924 2.59265 1.29378 3.10998 0.776001C3.62732 0.258223 4.25754 -0.000443873 5.00065 5.71755e-07C5.74332 5.71755e-07 6.37354 0.258667 6.89132 0.776001C7.4091 1.29333 7.66776 1.92356 7.66732 2.66667V4H8.59065C8.88843 4 9.14243 4.10489 9.35265 4.31467C9.56243 4.52445 9.66732 4.77845 9.66732 5.07667V10.9233C9.66732 11.2211 9.56243 11.4751 9.35265 11.6853C9.14287 11.8951 8.88887 12 8.59065 12H1.41065ZM1.41065 11.3333H8.59065C8.71021 11.3333 8.80843 11.2949 8.88532 11.218C8.96221 11.1411 9.00065 11.0429 9.00065 10.9233V5.07667C9.00065 4.95711 8.96221 4.85889 8.88532 4.782C8.80843 4.70511 8.71021 4.66667 8.59065 4.66667H1.41065C1.2911 4.66667 1.19287 4.70511 1.11598 4.782C1.0391 4.85889 1.00065 4.95711 1.00065 5.07667V10.9233C1.00065 11.0429 1.0391 11.1411 1.11598 11.218C1.19287 11.2949 1.2911 11.3333 1.41065 11.3333ZM5.00065 9C5.28198 9 5.51887 8.90356 5.71132 8.71067C5.90421 8.51822 6.00065 8.28133 6.00065 8C6.00065 7.71867 5.90421 7.48178 5.71132 7.28933C5.51887 7.09645 5.28198 7 5.00065 7C4.71932 7 4.48243 7.09645 4.28998 7.28933C4.0971 7.48178 4.00065 7.71867 4.00065 8C4.00065 8.28133 4.0971 8.51822 4.28998 8.71067C4.48243 8.90356 4.71932 9 5.00065 9ZM3.00065 4H7.00065V2.66667C7.00065 2.11111 6.80621 1.63889 6.41732 1.25C6.02843 0.861112 5.55621 0.666667 5.00065 0.666667C4.4451 0.666667 3.97287 0.861112 3.58398 1.25C3.1951 1.63889 3.00065 2.11111 3.00065 2.66667V4Z" fill="#E84438"/>
</svg>
