<svg width="19" height="22" viewBox="0 0 19 22" fill="none" xmlns="http://www.w3.org/2000/svg">
<path fill-rule="evenodd" clip-rule="evenodd" d="M3.77978 1H14.8989C15.6361 1 16.3432 1.30114 16.8645 1.83718C17.3858 2.37322 17.6787 3.10025 17.6787 3.85832V18.1499C17.6787 18.908 17.3858 19.635 16.8645 20.1711C16.3432 20.7071 15.6361 21.0083 14.8989 21.0083H3.77978C3.04253 21.0083 2.33549 20.7071 1.81418 20.1711C1.29287 19.635 1 18.908 1 18.1499V3.85832C1 3.10025 1.29287 2.37322 1.81418 1.83718C2.33549 1.30114 3.04253 1 3.77978 1Z" stroke="white" stroke-width="1.38989" stroke-linecap="round" stroke-linejoin="round"/>
<path d="M14.4845 21.0085L9.41833 18.2245C8.97441 17.9804 8.60326 17.617 8.34452 17.173C8.08578 16.729 7.94915 16.2211 7.94922 15.7035V6.30529C7.94915 5.78768 8.08578 5.27975 8.34452 4.83575C8.60326 4.39174 8.97441 4.02831 9.41833 3.78425L14.4845 1.00024" stroke="white" stroke-width="1.38989" stroke-linecap="round" stroke-linejoin="round"/>
<path d="M10.7288 12.4329C11.4964 12.4329 12.1186 11.7932 12.1186 11.0041C12.1186 10.2149 11.4964 9.5752 10.7288 9.5752C9.96114 9.5752 9.33887 10.2149 9.33887 11.0041C9.33887 11.7932 9.96114 12.4329 10.7288 12.4329Z" fill="white"/>
</svg>
