<svg width="59" height="53" viewBox="0 0 59 53" fill="none" xmlns="http://www.w3.org/2000/svg">
<path d="M20.8866 0.211085C20.5577 0.21994 20.2374 0.317993 19.9599 0.494763L1.19932 12.5983C0.943242 12.7633 0.732812 12.9901 0.587392 13.2578C0.441975 13.5255 0.366252 13.8256 0.367196 14.1302V38.3374C0.367244 38.8189 0.558539 39.2807 0.899012 39.6212C1.23948 39.9617 1.70124 40.1529 2.18273 40.153H32.2148C33.3204 41.8894 34.7218 43.6055 36.3943 45.278C39.7019 48.5856 43.2035 50.8604 46.6256 51.8027C50.0478 52.7449 53.5846 52.2192 56.0059 49.798C57.5883 48.2157 58.3512 46.0736 58.4645 43.8408C58.4854 43.4196 58.359 43.0042 58.1071 42.666C57.8552 42.3279 57.4934 42.088 57.0839 41.9874L48.9896 39.9638C48.6863 39.8877 48.3685 39.8913 48.067 39.9742C47.7655 40.0571 47.4905 40.2164 47.2686 40.4366L41.2357 34.4038C41.4561 34.1819 41.6154 33.9068 41.6982 33.6054C41.781 33.3039 41.7846 32.986 41.7085 32.6828L41.5194 31.8885C41.5234 31.8192 41.5234 31.7498 41.5194 31.6805V14.1302C41.5204 13.8256 41.4446 13.5255 41.2992 13.2578C41.1538 12.9901 40.9434 12.7633 40.6873 12.5983L21.9267 0.494763C21.6167 0.297073 21.254 0.198152 20.8866 0.211085ZM20.9433 4.20149L36.4889 14.2247L20.9433 24.0779L5.39775 14.2247L20.9433 4.20149ZM3.99827 17.6479L19.9788 27.7656C20.2679 27.9469 20.6021 28.0431 20.9433 28.0431C21.2845 28.0431 21.6188 27.9469 21.9078 27.7656L37.8883 17.6479V23.208C37.8694 23.2077 37.8505 23.2077 37.8316 23.208C35.5988 23.3213 33.4568 24.0841 31.8744 25.6665C29.4531 28.0877 28.9274 31.6245 29.8697 35.0467C30.0048 35.5371 30.1725 36.0289 30.3614 36.5219H3.99827V17.6479ZM36.5834 27.1227L37.756 31.8129L37.4534 31.8885C37.1427 31.968 36.8586 32.1283 36.63 32.3531C36.4014 32.578 36.2364 32.8596 36.1518 33.1688C36.0673 33.4782 36.0662 33.8045 36.1487 34.1143C36.2311 34.4242 36.3942 34.7069 36.6213 34.9333L46.7391 45.0512C46.9655 45.2783 47.2481 45.4412 47.558 45.5238C47.8679 45.6062 48.1941 45.605 48.5035 45.5205C48.8128 45.436 49.0943 45.271 49.3192 45.0424C49.5441 44.8138 49.7044 44.5296 49.7839 44.2189L49.8596 43.9165L54.5497 45.089C54.3219 45.9319 53.9893 46.6705 53.4339 47.2259C52.0139 48.6459 50.156 49.0106 47.5901 48.304C45.0243 47.5975 41.9446 45.6843 38.9663 42.7061C35.988 39.7279 34.0749 36.6481 33.3684 34.0822C32.6619 31.5163 33.0263 29.6585 34.4464 28.2384C35.0018 27.683 35.7405 27.3505 36.5834 27.1227Z" fill="#333333"/>
</svg>
