<svg width="50" height="56" viewBox="0 0 50 56" fill="none" xmlns="http://www.w3.org/2000/svg">
<path d="M25 0.00106321C22.1269 0.0254469 20.0396 3.97623 20.0396 8.72205L20.0396 18.7342C20.0396 20.1249 19.8185 20.6475 18.8849 21.467L0.883314 38.1626C0.294438 38.6842 -7.28633e-07 39.3308 -6.96059e-07 40.076L-5.70072e-07 42.9583C-5.41853e-07 43.6038 0.564776 43.9759 1.25215 43.6537L20.0396 35.0567L21.4636 47.6787L13.3105 52.1754C12.6965 52.4976 12.4261 53.0446 12.4261 53.8651L12.4261 54.9315C12.4261 55.5781 12.8432 56 13.4823 56L36.5177 56C37.1568 56 37.5498 55.5781 37.5498 54.9315L37.5498 53.863C37.5498 53.0435 37.2794 52.4966 36.6906 52.1743L28.5364 47.6776L29.9614 35.0557L48.7489 43.6526C49.4111 43.9749 50 43.6028 50 42.9572L50 40.0739C50 39.3297 49.6815 38.6831 49.1167 38.1616L31.091 21.4659C30.1815 20.6465 29.9604 20.1239 29.9604 18.7331L29.9604 8.72099C29.9604 3.97517 27.849 0.0254466 25 0.00106321Z" fill="#E84438"/>
</svg>
