<svg width="50" height="51" viewBox="0 0 50 51" fill="none" xmlns="http://www.w3.org/2000/svg">
<path d="M2.05148 37.9931V13.3056C2.05148 11.9026 2.60883 10.557 3.60093 9.56494C4.59303 8.57284 5.93861 8.01549 7.34165 8.01549H9.10505V11.5422H7.34165C6.87397 11.5422 6.42545 11.7281 6.09475 12.0588C5.76405 12.3895 5.57826 12.8379 5.57826 13.3056V37.9931C5.57826 38.4608 5.76405 38.9094 6.09475 39.2401C6.42545 39.5708 6.87397 39.7565 7.34165 39.7565H42.6095C43.0772 39.7565 43.5257 39.5708 43.8564 39.2401C44.1871 38.9094 44.3729 38.4608 44.3729 37.9931V13.3056C44.3729 12.8379 44.1871 12.3895 43.8564 12.0588C43.5257 11.7281 43.0772 11.5422 42.6095 11.5422H40.8461V8.01549H42.6095C44.0126 8.01549 45.3581 8.57284 46.3502 9.56494C47.3423 10.557 47.8997 11.9026 47.8997 13.3056V37.9931C47.8997 39.3962 47.3423 40.7417 46.3502 41.7338C45.3581 42.7259 44.0126 43.2834 42.6095 43.2834H7.34165C5.93861 43.2834 4.59303 42.7259 3.60093 41.7338C2.60883 40.7417 2.05148 39.3962 2.05148 37.9931ZM0.288086 46.8102V50.3369H49.6631V46.8102H0.288086ZM39.0827 11.5422H10.8685V2.72531C10.8685 2.25763 11.0542 1.8091 11.3849 1.4784C11.7156 1.1477 12.1642 0.961914 12.6318 0.961914H37.3193C37.787 0.961914 38.2356 1.1477 38.5663 1.4784C38.8969 1.8091 39.0827 2.25763 39.0827 2.72531V11.5422ZM19.6854 4.4887H16.1586V8.01549H19.6854V4.4887ZM26.739 4.4887H23.2122V8.01549H26.739V4.4887ZM21.1314 30.9396H28.8198L29.8778 25.6495H20.0734L21.1314 30.9396ZM39.0827 37.9931H10.8685V15.069H39.0827V37.9931ZM33.7926 24.2386C33.843 23.9825 33.836 23.7183 33.772 23.4653C33.7079 23.2122 33.5885 22.9764 33.4222 22.775C33.2544 22.5681 33.0419 22.402 32.8006 22.2889C32.5593 22.1759 32.2956 22.1191 32.0292 22.1227H30.2658V18.5958H26.739V22.1227H23.2122V18.5958H19.6854V22.1227H17.922C17.6616 22.1243 17.4047 22.1838 17.1699 22.2966C16.9352 22.4094 16.7283 22.5728 16.5642 22.775C16.398 22.9764 16.2785 23.2122 16.2145 23.4653C16.1505 23.7183 16.1434 23.9825 16.1939 24.2386L17.9573 33.0556C18.0397 33.4599 18.2613 33.8225 18.5835 34.0803C18.9057 34.3381 19.3081 34.4747 19.7207 34.4664H30.301C30.7136 34.4747 31.116 34.3381 31.4382 34.0803C31.7604 33.8225 31.982 33.4599 32.0644 33.0556L33.7926 24.2386Z" fill="#333333"/>
</svg>
