<svg width="61" height="60" viewBox="0 0 61 60" fill="none" xmlns="http://www.w3.org/2000/svg">
<mask id="mask0_2446_582" style="mask-type:luminance" maskUnits="userSpaceOnUse" x="0" y="0" width="61" height="60">
<path d="M60.5 0H0.5V60H60.5V0Z" fill="white"/>
</mask>
<g mask="url(#mask0_2446_582)">
<path d="M50.6446 43.776H22.5946C22.1722 43.7551 21.7611 43.6326 21.3961 43.4191C21.0311 43.2055 20.723 42.9071 20.4978 42.5492C20.2726 42.1913 20.137 41.7843 20.1025 41.3628C20.068 40.9413 20.1356 40.5178 20.2996 40.128L23.3566 33.3555" stroke="#383838" stroke-width="1.5" stroke-miterlimit="10"/>
<path d="M56 12.5132L45.035 32.0522C44.7983 32.4497 44.4623 32.7788 44.0599 33.0071C43.6575 33.2354 43.2026 33.355 42.74 33.3542H23.36L13.16 13.8152C12.9776 13.4277 12.6892 13.0998 12.3282 12.8694C11.9672 12.6389 11.5483 12.5155 11.12 12.5132H5" stroke="#383838" stroke-width="1.5" stroke-miterlimit="10"/>
<path d="M25.1449 47.6836C24.1217 47.7036 23.1471 48.1242 22.4305 48.855C21.7139 49.5857 21.3125 50.5684 21.3125 51.5918C21.3125 52.6153 21.7139 53.598 22.4305 54.3287C23.1471 55.0595 24.1217 55.48 25.1449 55.5001C26.1682 55.48 27.1428 55.0595 27.8594 54.3287C28.576 53.598 28.9774 52.6153 28.9774 51.5918C28.9774 50.5684 28.576 49.5857 27.8594 48.855C27.1428 48.1242 26.1682 47.7036 25.1449 47.6836Z" fill="#383838"/>
<path d="M42.9945 47.6837C41.9713 47.7037 40.9967 48.1243 40.2801 48.8551C39.5635 49.5858 39.1621 50.5685 39.1621 51.592C39.1621 52.6154 39.5635 53.5981 40.2801 54.3288C40.9967 55.0596 41.9713 55.4802 42.9945 55.5002C44.0118 55.4645 44.9764 55.0388 45.6885 54.3114C46.4006 53.584 46.8055 52.6105 46.8195 51.5927C46.8345 51.0824 46.7464 50.5743 46.5605 50.0988C46.3746 49.6234 46.0948 49.1902 45.7378 48.8253C45.3807 48.4604 44.9538 48.1713 44.4824 47.9751C44.0111 47.779 43.505 47.6799 42.9945 47.6837Z" fill="#383838"/>
<path d="M33.0502 21.3705L27.1852 24.4965L28.4602 17.7225L23.6152 13.0335L30.2452 11.991L33.0502 6L36.1102 11.9925L42.7402 13.035L37.8952 17.724L39.1702 24.498L33.0502 21.3705Z" stroke="#383838" stroke-width="1.5" stroke-miterlimit="10"/>
</g>
</svg>
