<svg width="52" height="54" viewBox="0 0 52 54" fill="none" xmlns="http://www.w3.org/2000/svg">
<g clip-path="url(#clip0_3662_2582)">
<path d="M32.4851 28.236L38.4384 23.6826H45.4901C48.6766 23.6826 51.268 21.0912 51.268 17.9058V6.96805C51.268 3.79301 48.6766 1.20996 45.4922 1.20996H27.2939C24.1095 1.20996 21.5181 3.79301 21.5181 6.96805V17.9058C21.5181 21.0912 24.1095 23.6826 27.2939 23.6826H27.7617V25.9014C27.7617 27.576 29.1282 28.8435 30.7039 28.8435C31.3345 28.8435 31.9609 28.6378 32.4851 28.236ZM29.1002 19.4062H27.2939C26.467 19.4062 25.7946 18.7327 25.7946 17.9058V6.96805C25.7946 6.15158 26.467 5.4865 27.2939 5.4865H45.4922C46.3191 5.4865 46.9915 6.15158 46.9915 6.96805V17.9058C46.9915 18.7327 46.317 19.4062 45.4901 19.4062H37.9853C37.3463 19.4062 36.7136 19.6202 36.1999 20.0107L32.0382 23.194V22.3452C32.0382 20.7248 30.7206 19.4062 29.1002 19.4062Z" fill="#333333"/>
<path d="M33.2535 14.5803H39.5368C40.7187 14.5803 41.675 13.6229 41.675 12.442C41.675 11.2612 40.7187 10.3037 39.5368 10.3037H33.2535C32.0716 10.3037 31.1152 11.2612 31.1152 12.442C31.1152 13.6229 32.0716 14.5803 33.2535 14.5803Z" fill="#333333"/>
<path d="M0.713867 45.9588V49.2435C0.713867 51.4485 2.50759 53.2423 4.71059 53.2423H26.0495C28.2546 53.2423 30.0483 51.4485 30.0483 49.2435V45.9588C30.0483 41.1158 26.8492 37.0491 22.4698 35.6374C23.4233 34.2578 23.9885 32.5907 23.9885 30.7904C23.9885 26.0743 20.1525 22.2373 15.4354 22.2373C10.7182 22.2373 6.88228 26.0743 6.88228 30.7904C6.88228 32.5781 7.4372 34.2365 8.37896 35.6105C3.95468 36.9959 0.713867 41.084 0.713867 45.9588ZM15.4354 26.5139C17.7929 26.5139 19.7119 28.4319 19.7119 30.7904C19.7119 33.149 17.7929 35.067 15.4354 35.067C13.0778 35.067 11.1588 33.149 11.1588 30.7904C11.1588 28.4319 13.0778 26.5139 15.4354 26.5139ZM4.99041 45.9588C4.99041 42.3108 7.95768 39.3435 11.6057 39.3435H19.1565C22.8045 39.3435 25.7717 42.3108 25.7717 45.9588V48.9657H4.99041V45.9588Z" fill="#333333"/>
</g>
<defs>
<clipPath id="clip0_3662_2582">
<rect width="51" height="53" fill="white" transform="translate(0.604492 0.84375)"/>
</clipPath>
</defs>
</svg>
