<svg width="24" height="24" viewBox="0 0 24 24" fill="none" xmlns="http://www.w3.org/2000/svg">
<g opacity="0.5">
<circle cx="12" cy="12" r="11.75" transform="matrix(-1 0 0 1 24 0)" stroke="black" stroke-width="0.5"/>
<path d="M10.975 13.9236H12.4938L12.8958 9.97791V7H10.5879V9.97791L10.975 13.9236ZM10.4688 16.3506C10.4688 16.6981 10.5929 16.9958 10.841 17.244C11.0892 17.4922 11.387 17.6162 11.7344 17.6162C12.0818 17.6162 12.3796 17.4922 12.6278 17.244C12.8759 16.9958 13 16.6981 13 16.3506C13 16.0032 12.8759 15.7054 12.6278 15.4573C12.3796 15.2091 12.0818 15.085 11.7344 15.085C11.387 15.085 11.0892 15.2091 10.841 15.4573C10.5929 15.7054 10.4688 16.0032 10.4688 16.3506Z" fill="black"/>
</g>
</svg>
