<svg width="50" height="56" viewBox="0 0 50 56" fill="none" xmlns="http://www.w3.org/2000/svg">
<path d="M49.9695 31.9542C50.3412 19.5423 40.2986 8.5597 27.9195 7.90428C26.4327 5.02215 24.0204 2.72336 21.07 1.37716C18.1196 0.0309622 14.8023 -0.284517 11.6511 0.481399C8.49979 1.24731 5.6974 3.05017 3.69401 5.60039C1.69063 8.1506 0.602534 11.3001 0.604495 14.5431C0.604495 17.3251 2.17724 20.1983 4.25138 22.7826C2.82365 26.3773 2.29759 30.2667 2.71915 34.1114C3.14071 37.9562 4.49707 41.6391 6.66979 44.8391C8.84252 48.0388 11.7655 50.6581 15.1836 52.4682C18.6017 54.2782 22.411 55.2239 26.2787 55.2229C38.8985 55.4487 49.9622 44.5496 49.9695 31.9542ZM45.2097 38.7124C45.0406 39.1656 44.8524 39.6138 44.646 40.0634L44.1807 39.963C44.1552 39.9573 44.1312 39.9465 44.11 39.9313C44.0888 39.916 44.0709 39.8968 44.0574 39.8745C44.0439 39.8521 44.035 39.8274 44.0313 39.8017C44.0276 39.7757 44.0292 39.7495 44.0359 39.7243L44.6123 37.0057C44.8134 36.0577 44.6306 35.0687 44.104 34.2552C43.5773 33.4417 42.7497 32.8702 41.8025 32.6656L41.017 32.4992C40.7563 31.5801 40.3514 30.7083 39.8173 29.9161L40.4249 27.0408C40.5015 26.6895 40.714 26.3827 41.0159 26.1875C41.3178 25.9923 41.6846 25.9244 42.0364 25.9986L45.98 26.8328C46.9128 30.781 46.6446 34.9178 45.2097 38.7124ZM37.9256 34.9869C37.9256 36.8997 34.9011 39.9372 32.31 41.898C29.7189 39.9372 26.6936 36.8997 26.6936 34.9869C26.6927 34.2489 26.8373 33.5179 27.1191 32.8357C27.4009 32.1535 27.8145 31.5336 28.336 31.0114C28.8576 30.4892 29.477 30.0749 30.1588 29.7922C30.8407 29.5095 31.5715 29.364 32.3096 29.364C33.0477 29.364 33.7785 29.5095 34.4603 29.7922C35.1422 30.0749 35.7616 30.4892 36.2831 31.0114C36.8047 31.5336 37.2182 32.1535 37.5001 32.8357C37.7819 33.5179 37.9265 34.2489 37.9256 34.9869ZM15.0754 3.51911C17.9982 3.52246 20.8002 4.68499 22.8669 6.75168C24.9336 8.81837 26.0961 11.6205 26.0995 14.5431C26.0995 19.1292 18.8648 25.3568 15.0746 28.1234C11.6156 25.5205 4.23971 19.5828 4.05133 14.5431C4.05467 11.6205 5.2172 8.81835 7.2839 6.75166C9.3506 4.68497 12.1527 3.52244 15.0754 3.51911ZM13.6659 41.819C13.3152 42.2821 13.0598 42.8102 12.9144 43.3726C12.7691 43.9351 12.7368 44.5208 12.8193 45.0959L13.064 46.8371C10.0805 44.297 7.91273 40.9329 6.83234 37.1665L15.9893 35.8793C16.2452 35.8448 16.5044 35.9128 16.7105 36.0682C16.9166 36.2239 17.053 36.4544 17.09 36.7099L17.4123 39.0001C17.4471 39.2561 17.3795 39.5153 17.2241 39.7215C17.0687 39.9277 16.8381 40.0642 16.5826 40.1013C16.007 40.1806 15.4529 40.3732 14.9523 40.668C14.4516 40.9628 14.0144 41.354 13.6659 41.819ZM26.2787 51.776C22.7683 51.7814 19.3177 50.8667 16.2708 49.1233C16.5363 48.2311 16.6073 47.2924 16.4791 46.3703L16.2325 44.6157C16.2147 44.4889 16.222 44.3599 16.2541 44.236C16.2861 44.1119 16.3423 43.9955 16.4193 43.8933C16.4964 43.791 16.5928 43.7049 16.7031 43.64C16.8134 43.5751 16.9355 43.5324 17.0623 43.5145C17.6374 43.4339 18.1911 43.2407 18.6915 42.946C19.192 42.6513 19.6295 42.2608 19.979 41.7971C20.3285 41.3331 20.5832 40.805 20.7284 40.2426C20.8737 39.6802 20.9067 39.0948 20.8256 38.5197L20.5033 36.2304C20.4226 35.6553 20.2294 35.1017 19.9348 34.6012C19.6402 34.1008 19.2499 33.6635 18.7861 33.3139C18.3224 32.9644 17.7944 32.7096 17.2322 32.5642C16.67 32.4187 16.0847 32.3853 15.5096 32.4661L6.16635 33.7794C5.84284 31.0641 6.08807 28.3111 6.88644 25.6957C9.11752 27.8874 11.5336 29.8825 14.1077 31.6586C14.3932 31.8524 14.7304 31.9562 15.0755 31.9562C15.4206 31.9562 15.7577 31.8524 16.0432 31.6586C17.425 30.7212 29.5465 22.2734 29.5465 14.5431C29.5451 13.5211 29.4354 12.5023 29.2192 11.5035C32.5517 11.9776 35.7116 13.2815 38.4088 15.2954C41.1059 17.3092 43.2537 19.9686 44.6549 23.0292L42.7509 22.6266C41.5048 22.3621 40.2046 22.6031 39.1362 23.2967C38.0677 23.9904 37.3184 25.08 37.0529 26.326L36.8744 27.1705C35.4991 26.3624 33.9346 25.9325 32.3395 25.9242C30.7444 25.9158 29.1754 26.3295 27.7918 27.1231C26.4081 27.9167 25.2589 29.0622 24.4607 30.4433C23.6625 31.8243 23.2437 33.3918 23.2467 34.9869C23.2467 39.7146 29.9907 44.5294 31.3423 45.4468C31.6279 45.6404 31.9651 45.7439 32.3101 45.7439C32.6552 45.7438 32.9923 45.64 33.2778 45.4464C34.5155 44.6067 40.2598 40.4975 41.2212 36.1804C41.2379 36.2132 41.2451 36.25 41.2421 36.2867L40.6656 39.0039C40.4832 39.8413 40.6029 40.7162 41.0035 41.4738C41.404 42.2313 42.0597 42.8228 42.8544 43.1436C40.9887 45.8088 38.5081 47.9848 35.6226 49.4875C32.7372 50.9902 29.532 51.7752 26.2787 51.776Z" fill="#333333"/>
</svg>
